<?xml version="1.0" encoding="us-ascii" standalone="no"?><svg xmlns="http://www.w3.org/2000/svg" xmlns:xlink="http://www.w3.org/1999/xlink" contentStyleType="text/css" height="617px" preserveAspectRatio="none" style="width:937px;height:617px;background:#FFFFFF;" version="1.1" viewBox="0 0 937 617" width="937px" zoomAndPan="magnify"><defs/><g><text fill="#000000" font-family="Roboto Condensed" font-size="14" font-weight="bold" lengthAdjust="spacing" textLength="527" x="206.25" y="29.5332">Diagrama de Secuencia para la Solicitud de Informe de Anatom&#237;a Patol&#243;gica</text><rect fill="#FFFFFF" height="438.8906" style="stroke:#107050;stroke-width:1.0;" width="10" x="346.5" y="153.5703"/><rect fill="#FFFFFF" height="342.8359" style="stroke:#107050;stroke-width:1.0;" width="10" x="649.5" y="227.2734"/><rect fill="#FFFFFF" height="320.8359" rx="4.5" ry="4.5" style="stroke:#107050;stroke-width:1.5;" width="693.5" x="237" y="242.2734"/><rect fill="#FFFFFF" height="138.2422" rx="4.5" ry="4.5" style="stroke:#107050;stroke-width:1.5;" width="673.5" x="247" y="371.6797"/><path d="M247,463.7344 L920.5,463.7344 L920.5,505.4219 A4.5,4.5 0 0 1 916,509.9219 L251.5,509.9219 A4.5,4.5 0 0 1 247,505.4219 L247,463.7344 " fill="#FFFFFF" style="stroke:none;stroke-width:1.0;"/><path d="M237,516.9219 L930.5,516.9219 L930.5,558.6094 A4.5,4.5 0 0 1 926,563.1094 L241.5,563.1094 A4.5,4.5 0 0 1 237,558.6094 L237,516.9219 " fill="#FFFFFF" style="stroke:none;stroke-width:1.0;"/><line style="stroke:#107050;stroke-width:0.5;stroke-dasharray:5.0,5.0;" x1="31" x2="31" y1="121.2188" y2="610.4609"/><line style="stroke:#107050;stroke-width:0.5;stroke-dasharray:5.0,5.0;" x1="351" x2="351" y1="121.2188" y2="610.4609"/><line style="stroke:#107050;stroke-width:0.5;stroke-dasharray:5.0,5.0;" x1="654" x2="654" y1="121.2188" y2="610.4609"/><text fill="#000000" font-family="Roboto Condensed" font-size="14" lengthAdjust="spacing" textLength="47" x="5" y="118.1426">usuario</text><ellipse cx="31.5" cy="52.1094" fill="#FFFFFF" rx="8" ry="8" style="stroke:#107050;stroke-width:0.5;"/><path d="M31.5,60.1094 L31.5,87.1094 M18.5,68.1094 L44.5,68.1094 M31.5,87.1094 L18.5,102.1094 M31.5,87.1094 L44.5,102.1094 " fill="none" style="stroke:#107050;stroke-width:0.5;"/><rect fill="#FFFFFF" height="31.6094" rx="4.5" ry="4.5" style="stroke:#107050;stroke-width:0.5;" width="189" x="257" y="88.6094"/><text fill="#000000" font-family="Roboto Condensed" font-size="14" lengthAdjust="spacing" textLength="175" x="264" y="110.1426">Sistema Inform&#225;tico Externo</text><text fill="#000000" font-family="Roboto Condensed" font-size="14" lengthAdjust="spacing" textLength="219" x="542" y="118.1426">Repositorio Anatom&#237;as Patol&#243;gicas</text><path d="M636.5,67.6094 C636.5,57.6094 654.5,57.6094 654.5,57.6094 C654.5,57.6094 672.5,57.6094 672.5,67.6094 L672.5,93.6094 C672.5,103.6094 654.5,103.6094 654.5,103.6094 C654.5,103.6094 636.5,103.6094 636.5,93.6094 L636.5,67.6094 " fill="#FFFFFF" style="stroke:#107050;stroke-width:1.5;"/><path d="M636.5,67.6094 C636.5,77.6094 654.5,77.6094 654.5,77.6094 C654.5,77.6094 672.5,77.6094 672.5,67.6094 " fill="none" style="stroke:#107050;stroke-width:1.5;"/><rect fill="#FFFFFF" height="438.8906" style="stroke:#107050;stroke-width:1.0;" width="10" x="346.5" y="153.5703"/><rect fill="#FFFFFF" height="342.8359" style="stroke:#107050;stroke-width:1.0;" width="10" x="649.5" y="227.2734"/><polygon fill="#107050" points="334.5,149.5703,344.5,153.5703,334.5,157.5703,338.5,153.5703" style="stroke:#107050;stroke-width:1.0;"/><line style="stroke:#107050;stroke-width:1.0;" x1="31.5" x2="340.5" y1="153.5703" y2="153.5703"/><text fill="#000000" font-family="Roboto Condensed" font-size="13" lengthAdjust="spacing" textLength="296" x="38.5" y="148.7139">Genera solicitud de informe de anatom&#237;a patol&#243;gica</text><line style="stroke:#107050;stroke-width:1.0;" x1="356.5" x2="398.5" y1="183.9219" y2="183.9219"/><line style="stroke:#107050;stroke-width:1.0;" x1="398.5" x2="398.5" y1="183.9219" y2="196.9219"/><line style="stroke:#107050;stroke-width:1.0;" x1="357.5" x2="398.5" y1="196.9219" y2="196.9219"/><polygon fill="#107050" points="367.5,192.9219,357.5,196.9219,367.5,200.9219,363.5,196.9219" style="stroke:#107050;stroke-width:1.0;"/><text fill="#000000" font-family="Roboto Condensed" font-size="13" lengthAdjust="spacing" textLength="279" x="363.5" y="179.0654">Genera solicitud en estructura FHIR (xml o json)</text><polygon fill="#107050" points="637.5,223.2734,647.5,227.2734,637.5,231.2734,641.5,227.2734" style="stroke:#107050;stroke-width:1.0;"/><line style="stroke:#107050;stroke-width:1.0;" x1="356.5" x2="643.5" y1="227.2734" y2="227.2734"/><text fill="#000000" font-family="Roboto Condensed" font-size="13" lengthAdjust="spacing" textLength="208" x="363.5" y="222.417">Solicitud de Token de Autenticaci&#243;n</text><path d="M241.5,242.2734 L298,242.2734 L298,250.625 L288,260.625 L237,260.625 L237,246.7734 A4.5,4.5 0 0 1 241.5,242.2734 " fill="#FFFFFF" style="stroke:#107050;stroke-width:1.5;"/><rect fill="none" height="320.8359" rx="4.5" ry="4.5" style="stroke:#107050;stroke-width:1.5;" width="693.5" x="237" y="242.2734"/><text fill="#000000" font-family="Roboto Condensed" font-size="13" font-weight="bold" lengthAdjust="spacing" textLength="16" x="252" y="256.7686">alt</text><text fill="#000000" font-family="Roboto Condensed" font-size="11" font-weight="bold" lengthAdjust="spacing" textLength="116" x="313" y="255.6924">[Credenciales v&#225;lido]</text><polygon fill="#107050" points="367.5,278.9766,357.5,282.9766,367.5,286.9766,363.5,282.9766" style="stroke:#107050;stroke-width:1.0;"/><line style="stroke:#107050;stroke-width:1.0;" x1="361.5" x2="648.5" y1="282.9766" y2="282.9766"/><text fill="#000000" font-family="Roboto Condensed" font-size="13" lengthAdjust="spacing" textLength="227" x="373.5" y="278.1201">Respuesta con Token de Autenticaci&#243;n</text><polygon fill="#107050" points="637.5,309.3281,647.5,313.3281,637.5,317.3281,641.5,313.3281" style="stroke:#107050;stroke-width:1.0;"/><line style="stroke:#107050;stroke-width:1.0;" x1="356.5" x2="643.5" y1="313.3281" y2="313.3281"/><text fill="#000000" font-family="Roboto Condensed" font-size="13" lengthAdjust="spacing" textLength="183" x="363.5" y="308.4717">Realiza un POST a la API FHIR</text><line style="stroke:#107050;stroke-width:1.0;" x1="659.5" x2="701.5" y1="343.6797" y2="343.6797"/><line style="stroke:#107050;stroke-width:1.0;" x1="701.5" x2="701.5" y1="343.6797" y2="356.6797"/><line style="stroke:#107050;stroke-width:1.0;" x1="660.5" x2="701.5" y1="356.6797" y2="356.6797"/><polygon fill="#107050" points="670.5,352.6797,660.5,356.6797,670.5,360.6797,666.5,356.6797" style="stroke:#107050;stroke-width:1.0;"/><text fill="#000000" font-family="Roboto Condensed" font-size="13" lengthAdjust="spacing" textLength="137" x="666.5" y="338.8232">Valida formato del FHIR</text><path d="M251.5,371.6797 L308,371.6797 L308,380.0313 L298,390.0313 L247,390.0313 L247,376.1797 A4.5,4.5 0 0 1 251.5,371.6797 " fill="#FFFFFF" style="stroke:#107050;stroke-width:1.5;"/><rect fill="none" height="138.2422" rx="4.5" ry="4.5" style="stroke:#107050;stroke-width:1.5;" width="673.5" x="247" y="371.6797"/><text fill="#000000" font-family="Roboto Condensed" font-size="13" font-weight="bold" lengthAdjust="spacing" textLength="16" x="262" y="386.1748">alt</text><text fill="#000000" font-family="Roboto Condensed" font-size="11" font-weight="bold" lengthAdjust="spacing" textLength="89" x="323" y="385.0986">[Formato v&#225;lido]</text><line style="stroke:#107050;stroke-width:1.0;" x1="659.5" x2="701.5" y1="412.3828" y2="412.3828"/><line style="stroke:#107050;stroke-width:1.0;" x1="701.5" x2="701.5" y1="412.3828" y2="425.3828"/><line style="stroke:#107050;stroke-width:1.0;" x1="660.5" x2="701.5" y1="425.3828" y2="425.3828"/><polygon fill="#107050" points="670.5,421.3828,660.5,425.3828,670.5,429.3828,666.5,425.3828" style="stroke:#107050;stroke-width:1.0;"/><text fill="#000000" font-family="Roboto Condensed" font-size="13" lengthAdjust="spacing" textLength="242" x="666.5" y="407.5264">Almacena el solicitud en la base de datos</text><polygon fill="#107050" points="367.5,451.7344,357.5,455.7344,367.5,459.7344,363.5,455.7344" style="stroke:#107050;stroke-width:1.0;"/><line style="stroke:#107050;stroke-width:1.0;" x1="361.5" x2="648.5" y1="455.7344" y2="455.7344"/><text fill="#000000" font-family="Roboto Condensed" font-size="13" lengthAdjust="spacing" textLength="190" x="373.5" y="450.8779">Respuesta exitosa (201 Created)</text><line style="stroke:#107050;stroke-width:1.0;stroke-dasharray:2.0,2.0;" x1="247" x2="920.5" y1="464.7344" y2="464.7344"/><text fill="#000000" font-family="Roboto Condensed" font-size="11" font-weight="bold" lengthAdjust="spacing" textLength="99" x="252" y="476.1533">[Formato inv&#225;lido]</text><polygon fill="#107050" points="367.5,497.9219,357.5,501.9219,367.5,505.9219,363.5,501.9219" style="stroke:#107050;stroke-width:1.0;"/><line style="stroke:#107050;stroke-width:1.0;" x1="361.5" x2="648.5" y1="501.9219" y2="501.9219"/><text fill="#000000" font-family="Roboto Condensed" font-size="13" lengthAdjust="spacing" textLength="222" x="373.5" y="497.0654">Respuesta de error (400 Bad Request)</text><line style="stroke:#107050;stroke-width:1.0;stroke-dasharray:2.0,2.0;" x1="237" x2="930.5" y1="517.9219" y2="517.9219"/><text fill="#000000" font-family="Roboto Condensed" font-size="11" font-weight="bold" lengthAdjust="spacing" textLength="128" x="242" y="529.3408">[Credenciales inv&#225;lid,a]</text><polygon fill="#107050" points="367.5,551.1094,357.5,555.1094,367.5,559.1094,363.5,555.1094" style="stroke:#107050;stroke-width:1.0;"/><line style="stroke:#107050;stroke-width:1.0;" x1="361.5" x2="648.5" y1="555.1094" y2="555.1094"/><text fill="#000000" font-family="Roboto Condensed" font-size="13" lengthAdjust="spacing" textLength="223" x="373.5" y="550.2529">Respuesta de error (401 Unauthorized)</text><polygon fill="#107050" points="42.5,588.4609,32.5,592.4609,42.5,596.4609,38.5,592.4609" style="stroke:#107050;stroke-width:1.0;"/><line style="stroke:#107050;stroke-width:1.0;" x1="36.5" x2="350.5" y1="592.4609" y2="592.4609"/><text fill="#000000" font-family="Roboto Condensed" font-size="13" lengthAdjust="spacing" textLength="184" x="48.5" y="587.6045">Notifica el estado de la solicitud</text><!--SRC=[fLFDRXCn4BxlKmmvfH8jAU8KeKefKCW5egJqFbrFsW6lPrdRKUZRz04uzH7snHWlQTSf2GNXa-Mnlv_vne639NZBUDLWXM085bH6SYKZrDWWM8I5M2uvH9FAKxUKfgAqdJWCKhK_46QwiUtT5PTO5DUijQL8k9HryOnTQQCU7BtmuRkb8uwLBGeiWpGGVSI6fL2Ye0mrkW231Vj0AkKNKNkh5O5twq2Dam6WXqcjSZ3mIWg30I_H4mpcL8jd1MNfTVbScEyUP_TEMMhFAdWZ0mvFCkmnl2T7sW2Vk-VUFJwuhpFtQenN62XNsM-Vf207v4CJon3r_Ep3T0x3TML1u8iNT_08wdSpu-smpkMh8gQeOY2ddSIIsplNgzpH3hG1tZHakXcmv67LtbesKe2kZF_ruOxNCDP3NqSrWL2AswlW4TWUCtD2opS8qS7iq-8Skd6SpAPTPpgC7HBsO5qeb458-MbUAidsACdpsQQGs_qtXecji2I7eD1RaQheRagr3Jgnuf_0pYUaxoQjzQ976BuS7QU0D3vpq26HLUnx-Up-pi1k4bL8JQDVS_XgD89JD5hxbaeR9cUAZcrhGEufdsFnFtp7yDbX3DVwy2PPIsI6_ZIgsmEq-SPZ-2Y1brf8EIGMaz9E8Jo4akDc7_Kd]--></g></svg>