<?xml version="1.0" encoding="us-ascii" standalone="no"?><svg xmlns="http://www.w3.org/2000/svg" xmlns:xlink="http://www.w3.org/1999/xlink" contentStyleType="text/css" height="660px" preserveAspectRatio="none" style="width:920px;height:660px;background:#FFFFFF;" version="1.1" viewBox="0 0 920 660" width="920px" zoomAndPan="magnify"><defs/><g><text fill="#000000" font-family="Roboto Condensed" font-size="14" font-weight="bold" lengthAdjust="spacing" textLength="521" x="200.5" y="29.5332">Diagrama de Secuencia para el Informe Resultante de Anatom&#237;a Patol&#243;gica</text><rect fill="#FFFFFF" height="482.2422" style="stroke:#107050;stroke-width:1.0;" width="10" x="341" y="153.5703"/><rect fill="#FFFFFF" height="371.1875" style="stroke:#107050;stroke-width:1.0;" width="10" x="638" y="227.2734"/><rect fill="#FFFFFF" height="364.1875" rx="4.5" ry="4.5" style="stroke:#107050;stroke-width:1.5;" width="732" x="181" y="242.2734"/><rect fill="#FFFFFF" height="181.5938" rx="4.5" ry="4.5" style="stroke:#107050;stroke-width:1.5;" width="712" x="191" y="371.6797"/><path d="M191,507.0859 L903,507.0859 L903,548.7734 A4.5,4.5 0 0 1 898.5,553.2734 L195.5,553.2734 A4.5,4.5 0 0 1 191,548.7734 L191,507.0859 " fill="#FFFFFF" style="stroke:none;stroke-width:1.0;"/><path d="M181,560.2734 L913,560.2734 L913,601.9609 A4.5,4.5 0 0 1 908.5,606.4609 L185.5,606.4609 A4.5,4.5 0 0 1 181,601.9609 L181,560.2734 " fill="#FFFFFF" style="stroke:none;stroke-width:1.0;"/><line style="stroke:#107050;stroke-width:0.5;stroke-dasharray:5.0,5.0;" x1="54" x2="54" y1="121.2188" y2="653.8125"/><line style="stroke:#107050;stroke-width:0.5;stroke-dasharray:5.0,5.0;" x1="346" x2="346" y1="121.2188" y2="653.8125"/><line style="stroke:#107050;stroke-width:0.5;stroke-dasharray:5.0,5.0;" x1="642.5" x2="642.5" y1="121.2188" y2="653.8125"/><text fill="#000000" font-family="Roboto Condensed" font-size="14" lengthAdjust="spacing" textLength="92" x="5" y="118.1426">Anatopat&#243;logo</text><ellipse cx="54" cy="52.1094" fill="#FFFFFF" rx="8" ry="8" style="stroke:#107050;stroke-width:0.5;"/><path d="M54,60.1094 L54,87.1094 M41,68.1094 L67,68.1094 M54,87.1094 L41,102.1094 M54,87.1094 L67,102.1094 " fill="none" style="stroke:#107050;stroke-width:0.5;"/><rect fill="#FFFFFF" height="31.6094" rx="4.5" ry="4.5" style="stroke:#107050;stroke-width:0.5;" width="290" x="201" y="88.6094"/><text fill="#000000" font-family="Roboto Condensed" font-size="14" lengthAdjust="spacing" textLength="276" x="208" y="110.1426">Sistema Inform&#225;tico de Anatom&#237;a Patol&#243;gica</text><text fill="#000000" font-family="Roboto Condensed" font-size="14" lengthAdjust="spacing" textLength="219" x="530.5" y="118.1426">Repositorio Anatom&#237;as Patol&#243;gicas</text><path d="M625,67.6094 C625,57.6094 643,57.6094 643,57.6094 C643,57.6094 661,57.6094 661,67.6094 L661,93.6094 C661,103.6094 643,103.6094 643,103.6094 C643,103.6094 625,103.6094 625,93.6094 L625,67.6094 " fill="#FFFFFF" style="stroke:#107050;stroke-width:1.5;"/><path d="M625,67.6094 C625,77.6094 643,77.6094 643,77.6094 C643,77.6094 661,77.6094 661,67.6094 " fill="none" style="stroke:#107050;stroke-width:1.5;"/><rect fill="#FFFFFF" height="482.2422" style="stroke:#107050;stroke-width:1.0;" width="10" x="341" y="153.5703"/><rect fill="#FFFFFF" height="371.1875" style="stroke:#107050;stroke-width:1.0;" width="10" x="638" y="227.2734"/><polygon fill="#107050" points="329,149.5703,339,153.5703,329,157.5703,333,153.5703" style="stroke:#107050;stroke-width:1.0;"/><line style="stroke:#107050;stroke-width:1.0;" x1="54" x2="335" y1="153.5703" y2="153.5703"/><text fill="#000000" font-family="Roboto Condensed" font-size="13" lengthAdjust="spacing" textLength="226" x="61" y="148.7139">Genera informe de anatom&#237;a patol&#243;gica</text><line style="stroke:#107050;stroke-width:1.0;" x1="351" x2="393" y1="183.9219" y2="183.9219"/><line style="stroke:#107050;stroke-width:1.0;" x1="393" x2="393" y1="183.9219" y2="196.9219"/><line style="stroke:#107050;stroke-width:1.0;" x1="352" x2="393" y1="196.9219" y2="196.9219"/><polygon fill="#107050" points="362,192.9219,352,196.9219,362,200.9219,358,196.9219" style="stroke:#107050;stroke-width:1.0;"/><text fill="#000000" font-family="Roboto Condensed" font-size="13" lengthAdjust="spacing" textLength="273" x="358" y="179.0654">Genera informe en estructura FHIR (xml o json)</text><polygon fill="#107050" points="626,223.2734,636,227.2734,626,231.2734,630,227.2734" style="stroke:#107050;stroke-width:1.0;"/><line style="stroke:#107050;stroke-width:1.0;" x1="351" x2="632" y1="227.2734" y2="227.2734"/><text fill="#000000" font-family="Roboto Condensed" font-size="13" lengthAdjust="spacing" textLength="208" x="358" y="222.417">Solicitud de Token de Autenticaci&#243;n</text><path d="M185.5,242.2734 L242,242.2734 L242,250.625 L232,260.625 L181,260.625 L181,246.7734 A4.5,4.5 0 0 1 185.5,242.2734 " fill="#FFFFFF" style="stroke:#107050;stroke-width:1.5;"/><rect fill="none" height="364.1875" rx="4.5" ry="4.5" style="stroke:#107050;stroke-width:1.5;" width="732" x="181" y="242.2734"/><text fill="#000000" font-family="Roboto Condensed" font-size="13" font-weight="bold" lengthAdjust="spacing" textLength="16" x="196" y="256.7686">alt</text><text fill="#000000" font-family="Roboto Condensed" font-size="11" font-weight="bold" lengthAdjust="spacing" textLength="78" x="257" y="255.6924">[Token v&#225;lido]</text><polygon fill="#107050" points="362,278.9766,352,282.9766,362,286.9766,358,282.9766" style="stroke:#107050;stroke-width:1.0;"/><line style="stroke:#107050;stroke-width:1.0;" x1="356" x2="637" y1="282.9766" y2="282.9766"/><text fill="#000000" font-family="Roboto Condensed" font-size="13" lengthAdjust="spacing" textLength="227" x="368" y="278.1201">Respuesta con Token de Autenticaci&#243;n</text><polygon fill="#107050" points="626,309.3281,636,313.3281,626,317.3281,630,313.3281" style="stroke:#107050;stroke-width:1.0;"/><line style="stroke:#107050;stroke-width:1.0;" x1="351" x2="632" y1="313.3281" y2="313.3281"/><text fill="#000000" font-family="Roboto Condensed" font-size="13" lengthAdjust="spacing" textLength="183" x="358" y="308.4717">Realiza un POST a la API FHIR</text><line style="stroke:#107050;stroke-width:1.0;" x1="648" x2="690" y1="343.6797" y2="343.6797"/><line style="stroke:#107050;stroke-width:1.0;" x1="690" x2="690" y1="343.6797" y2="356.6797"/><line style="stroke:#107050;stroke-width:1.0;" x1="649" x2="690" y1="356.6797" y2="356.6797"/><polygon fill="#107050" points="659,352.6797,649,356.6797,659,360.6797,655,356.6797" style="stroke:#107050;stroke-width:1.0;"/><text fill="#000000" font-family="Roboto Condensed" font-size="13" lengthAdjust="spacing" textLength="137" x="655" y="338.8232">Valida formato del FHIR</text><path d="M195.5,371.6797 L252,371.6797 L252,380.0313 L242,390.0313 L191,390.0313 L191,376.1797 A4.5,4.5 0 0 1 195.5,371.6797 " fill="#FFFFFF" style="stroke:#107050;stroke-width:1.5;"/><rect fill="none" height="181.5938" rx="4.5" ry="4.5" style="stroke:#107050;stroke-width:1.5;" width="712" x="191" y="371.6797"/><text fill="#000000" font-family="Roboto Condensed" font-size="13" font-weight="bold" lengthAdjust="spacing" textLength="16" x="206" y="386.1748">alt</text><text fill="#000000" font-family="Roboto Condensed" font-size="11" font-weight="bold" lengthAdjust="spacing" textLength="89" x="267" y="385.0986">[Formato v&#225;lido]</text><line style="stroke:#107050;stroke-width:1.0;" x1="648" x2="690" y1="412.3828" y2="412.3828"/><line style="stroke:#107050;stroke-width:1.0;" x1="690" x2="690" y1="412.3828" y2="425.3828"/><line style="stroke:#107050;stroke-width:1.0;" x1="649" x2="690" y1="425.3828" y2="425.3828"/><polygon fill="#107050" points="659,421.3828,649,425.3828,659,429.3828,655,425.3828" style="stroke:#107050;stroke-width:1.0;"/><text fill="#000000" font-family="Roboto Condensed" font-size="13" lengthAdjust="spacing" textLength="170" x="655" y="407.5264">Actualiza solicitud de informe</text><line style="stroke:#107050;stroke-width:1.0;" x1="648" x2="690" y1="455.7344" y2="455.7344"/><line style="stroke:#107050;stroke-width:1.0;" x1="690" x2="690" y1="455.7344" y2="468.7344"/><line style="stroke:#107050;stroke-width:1.0;" x1="649" x2="690" y1="468.7344" y2="468.7344"/><polygon fill="#107050" points="659,464.7344,649,468.7344,659,472.7344,655,468.7344" style="stroke:#107050;stroke-width:1.0;"/><text fill="#000000" font-family="Roboto Condensed" font-size="13" lengthAdjust="spacing" textLength="236" x="655" y="450.8779">Almacena el informe en la base de datos</text><polygon fill="#107050" points="362,495.0859,352,499.0859,362,503.0859,358,499.0859" style="stroke:#107050;stroke-width:1.0;"/><line style="stroke:#107050;stroke-width:1.0;" x1="356" x2="637" y1="499.0859" y2="499.0859"/><text fill="#000000" font-family="Roboto Condensed" font-size="13" lengthAdjust="spacing" textLength="190" x="368" y="494.2295">Respuesta exitosa (201 Created)</text><line style="stroke:#107050;stroke-width:1.0;stroke-dasharray:2.0,2.0;" x1="191" x2="903" y1="508.0859" y2="508.0859"/><text fill="#000000" font-family="Roboto Condensed" font-size="11" font-weight="bold" lengthAdjust="spacing" textLength="99" x="196" y="519.5049">[Formato inv&#225;lido]</text><polygon fill="#107050" points="362,541.2734,352,545.2734,362,549.2734,358,545.2734" style="stroke:#107050;stroke-width:1.0;"/><line style="stroke:#107050;stroke-width:1.0;" x1="356" x2="637" y1="545.2734" y2="545.2734"/><text fill="#000000" font-family="Roboto Condensed" font-size="13" lengthAdjust="spacing" textLength="222" x="368" y="540.417">Respuesta de error (400 Bad Request)</text><line style="stroke:#107050;stroke-width:1.0;stroke-dasharray:2.0,2.0;" x1="181" x2="913" y1="561.2734" y2="561.2734"/><text fill="#000000" font-family="Roboto Condensed" font-size="11" font-weight="bold" lengthAdjust="spacing" textLength="88" x="186" y="572.6924">[Token inv&#225;lido]</text><polygon fill="#107050" points="362,594.4609,352,598.4609,362,602.4609,358,598.4609" style="stroke:#107050;stroke-width:1.0;"/><line style="stroke:#107050;stroke-width:1.0;" x1="356" x2="642" y1="598.4609" y2="598.4609"/><text fill="#000000" font-family="Roboto Condensed" font-size="13" lengthAdjust="spacing" textLength="223" x="368" y="593.6045">Respuesta de error (401 Unauthorized)</text><polygon fill="#107050" points="65,631.8125,55,635.8125,65,639.8125,61,635.8125" style="stroke:#107050;stroke-width:1.0;"/><line style="stroke:#107050;stroke-width:1.0;" x1="59" x2="345" y1="635.8125" y2="635.8125"/><text fill="#000000" font-family="Roboto Condensed" font-size="13" lengthAdjust="spacing" textLength="263" x="71" y="630.9561">Notifica el estado del informe en el repositorio</text><!--SRC=[dLF1SjD03BtlLuYSqWCbPJZbm4mAKyW5Cd7XhjfAAbYlZ7Ut4_et_G1E-GJ_6FB6ZKtR18eF7eyblVVq90KEbk0zuxh64g4Wo2YFv796gB1680jpjvAw95YIZpQW2zJcpHm6APjV20lziCrspJaQSyqQMuc4AzaOyu9TRgF-ENtbmqzBfnnBQmpcGMeO9OWAGxErifOHe8Ve8zOiHha3vrmf6umoze5KtKv8SwSHEIWXmIncyymK6F0AFS5eIPLuLawMliWFgtmg6-ITirIUjQ5E4Rnycr2dy84SgJ7SkQ8wSA-Z6bYXJV8Dgbb9JFiwY44Eo8SwvY7gtukFyoMCDwK5WMzUtCc- -B6-AMHYrQWGYrR9fNnNhDQQ6CYfJvXpitMzbYSwH1kwkflcpd8X1lHvdDYhrqMeeWf6oCKTv6nHZWbV4bg-HOWE5f-pIq2m2BF5FFL_HCDJM5yLga1etTG9g1ZRexJzNNI1OOVFOvZfR7Pw_T3mReB_0sXBpCcb2nliWNgGTbQnTN_5mr-W7qw4DfhY4SQl9sVmhYOTUd6ICCWgxBqHxFxDYeVmAelgMezt_6OoWNCiDFQZ3NKShZ29PxSKVx8yd-4ClZYCuLfBRk_RAEZOCgi0s9zBTxfJ-2I1LxgOhTSjIR5RaU7vMQXxD3CWITVx6m00]--></g></svg>