<?xml version="1.0" encoding="us-ascii" standalone="no"?><svg xmlns="http://www.w3.org/2000/svg" xmlns:xlink="http://www.w3.org/1999/xlink" contentStyleType="text/css" height="512px" preserveAspectRatio="none" style="width:959px;height:512px;background:#FFFFFF;" version="1.1" viewBox="0 0 959 512" width="959px" zoomAndPan="magnify"><defs/><g><text fill="#000000" font-family="Roboto Condensed" font-size="14" font-weight="bold" lengthAdjust="spacing" textLength="629" x="166" y="29.5332">Diagrama de Secuencia para Exportar Informaci&#243;n del Repositorio de Anatom&#237;a Patol&#243;gica</text><rect fill="#FFFFFF" height="342.3516" style="stroke:#107050;stroke-width:1.0;" width="10" x="438" y="153.5703"/><rect fill="#FFFFFF" height="297" style="stroke:#107050;stroke-width:1.0;" width="10" x="708" y="183.9219"/><rect fill="#FFFFFF" height="290" rx="4.5" ry="4.5" style="stroke:#107050;stroke-width:1.5;" width="942" x="10" y="198.9219"/><path d="M10,412.3828 L952,412.3828 L952,484.4219 A4.5,4.5 0 0 1 947.5,488.9219 L14.5,488.9219 A4.5,4.5 0 0 1 10,484.4219 L10,412.3828 " fill="#FFFFFF" style="stroke:none;stroke-width:1.0;"/><line style="stroke:#107050;stroke-width:0.5;stroke-dasharray:5.0,5.0;" x1="48" x2="48" y1="121.2188" y2="505.9219"/><line style="stroke:#107050;stroke-width:0.5;stroke-dasharray:5.0,5.0;" x1="251.5" x2="251.5" y1="121.2188" y2="505.9219"/><line style="stroke:#107050;stroke-width:0.5;stroke-dasharray:5.0,5.0;" x1="442.5" x2="442.5" y1="121.2188" y2="505.9219"/><line style="stroke:#107050;stroke-width:0.5;stroke-dasharray:5.0,5.0;" x1="712.5" x2="712.5" y1="121.2188" y2="505.9219"/><text fill="#000000" font-family="Roboto Condensed" font-size="14" lengthAdjust="spacing" textLength="50" x="20" y="118.1426">Analista</text><ellipse cx="48" cy="52.1094" fill="#FFFFFF" rx="8" ry="8" style="stroke:#107050;stroke-width:0.5;"/><path d="M48,60.1094 L48,87.1094 M35,68.1094 L61,68.1094 M48,87.1094 L35,102.1094 M48,87.1094 L61,102.1094 " fill="none" style="stroke:#107050;stroke-width:0.5;"/><rect fill="#FFFFFF" height="31.6094" rx="4.5" ry="4.5" style="stroke:#107050;stroke-width:0.5;" width="173" x="165.5" y="88.6094"/><text fill="#000000" font-family="Roboto Condensed" font-size="14" lengthAdjust="spacing" textLength="159" x="172.5" y="110.1426">Sistema Anal&#237;tica Externo</text><rect fill="#FFFFFF" height="31.6094" rx="4.5" ry="4.5" style="stroke:#107050;stroke-width:0.5;" width="189" x="348.5" y="88.6094"/><text fill="#000000" font-family="Roboto Condensed" font-size="14" lengthAdjust="spacing" textLength="175" x="355.5" y="110.1426">Sistema Inform&#225;tico Externo</text><text fill="#000000" font-family="Roboto Condensed" font-size="14" lengthAdjust="spacing" textLength="219" x="600.5" y="118.1426">Repositorio Anatom&#237;as Patol&#243;gicas</text><path d="M695,67.6094 C695,57.6094 713,57.6094 713,57.6094 C713,57.6094 731,57.6094 731,67.6094 L731,93.6094 C731,103.6094 713,103.6094 713,103.6094 C713,103.6094 695,103.6094 695,93.6094 L695,67.6094 " fill="#FFFFFF" style="stroke:#107050;stroke-width:1.5;"/><path d="M695,67.6094 C695,77.6094 713,77.6094 713,77.6094 C713,77.6094 731,77.6094 731,67.6094 " fill="none" style="stroke:#107050;stroke-width:1.5;"/><rect fill="#FFFFFF" height="342.3516" style="stroke:#107050;stroke-width:1.0;" width="10" x="438" y="153.5703"/><rect fill="#FFFFFF" height="297" style="stroke:#107050;stroke-width:1.0;" width="10" x="708" y="183.9219"/><polygon fill="#107050" points="426,149.5703,436,153.5703,426,157.5703,430,153.5703" style="stroke:#107050;stroke-width:1.0;"/><line style="stroke:#107050;stroke-width:1.0;" x1="48" x2="432" y1="153.5703" y2="153.5703"/><text fill="#000000" font-family="Roboto Condensed" font-size="13" lengthAdjust="spacing" textLength="113" x="55" y="148.7139">Genera exportaci&#243;n</text><polygon fill="#107050" points="696,179.9219,706,183.9219,696,187.9219,700,183.9219" style="stroke:#107050;stroke-width:1.0;"/><line style="stroke:#107050;stroke-width:1.0;" x1="448" x2="702" y1="183.9219" y2="183.9219"/><text fill="#000000" font-family="Roboto Condensed" font-size="13" lengthAdjust="spacing" textLength="208" x="455" y="179.0654">Solicitud de Token de Autenticaci&#243;n</text><path d="M14.5,198.9219 L71,198.9219 L71,207.2734 L61,217.2734 L10,217.2734 L10,203.4219 A4.5,4.5 0 0 1 14.5,198.9219 " fill="#FFFFFF" style="stroke:#107050;stroke-width:1.5;"/><rect fill="none" height="290" rx="4.5" ry="4.5" style="stroke:#107050;stroke-width:1.5;" width="942" x="10" y="198.9219"/><text fill="#000000" font-family="Roboto Condensed" font-size="13" font-weight="bold" lengthAdjust="spacing" textLength="16" x="25" y="213.417">alt</text><text fill="#000000" font-family="Roboto Condensed" font-size="11" font-weight="bold" lengthAdjust="spacing" textLength="78" x="86" y="212.3408">[Token v&#225;lido]</text><polygon fill="#107050" points="459,235.625,449,239.625,459,243.625,455,239.625" style="stroke:#107050;stroke-width:1.0;"/><line style="stroke:#107050;stroke-width:1.0;" x1="453" x2="707" y1="239.625" y2="239.625"/><text fill="#000000" font-family="Roboto Condensed" font-size="13" lengthAdjust="spacing" textLength="227" x="465" y="234.7686">Respuesta con Token de Autenticaci&#243;n</text><polygon fill="#107050" points="696,265.9766,706,269.9766,696,273.9766,700,269.9766" style="stroke:#107050;stroke-width:1.0;"/><line style="stroke:#107050;stroke-width:1.0;" x1="448" x2="702" y1="269.9766" y2="269.9766"/><text fill="#000000" font-family="Roboto Condensed" font-size="13" lengthAdjust="spacing" textLength="236" x="455" y="265.1201">Realiza Operaci&#243;n $export a la API FHIR</text><line style="stroke:#107050;stroke-width:1.0;" x1="718" x2="760" y1="300.3281" y2="300.3281"/><line style="stroke:#107050;stroke-width:1.0;" x1="760" x2="760" y1="300.3281" y2="313.3281"/><line style="stroke:#107050;stroke-width:1.0;" x1="719" x2="760" y1="313.3281" y2="313.3281"/><polygon fill="#107050" points="729,309.3281,719,313.3281,729,317.3281,725,313.3281" style="stroke:#107050;stroke-width:1.0;"/><text fill="#000000" font-family="Roboto Condensed" font-size="13" lengthAdjust="spacing" textLength="215" x="725" y="295.4717">Extracci&#243;n copia de la base de datos</text><polygon fill="#107050" points="459,339.6797,449,343.6797,459,347.6797,455,343.6797" style="stroke:#107050;stroke-width:1.0;"/><line style="stroke:#107050;stroke-width:1.0;" x1="453" x2="707" y1="343.6797" y2="343.6797"/><text fill="#000000" font-family="Roboto Condensed" font-size="13" lengthAdjust="spacing" textLength="164" x="465" y="338.8232">Respuesta exitosa (200 OK)</text><polygon fill="#107050" points="59,370.0313,49,374.0313,59,378.0313,55,374.0313" style="stroke:#107050;stroke-width:1.0;"/><line style="stroke:#107050;stroke-width:1.0;" x1="53" x2="437" y1="374.0313" y2="374.0313"/><text fill="#000000" font-family="Roboto Condensed" font-size="13" lengthAdjust="spacing" textLength="182" x="65" y="369.1748">Entrega Archivo de Exportaci&#243;n</text><polygon fill="#107050" points="240,400.3828,250,404.3828,240,408.3828,244,404.3828" style="stroke:#107050;stroke-width:1.0;"/><line style="stroke:#107050;stroke-width:1.0;" x1="48" x2="246" y1="404.3828" y2="404.3828"/><text fill="#000000" font-family="Roboto Condensed" font-size="13" lengthAdjust="spacing" textLength="180" x="55" y="399.5264">Importa Archivo de Exportaci&#243;n</text><line style="stroke:#107050;stroke-width:1.0;stroke-dasharray:2.0,2.0;" x1="10" x2="952" y1="413.3828" y2="413.3828"/><text fill="#000000" font-family="Roboto Condensed" font-size="11" font-weight="bold" lengthAdjust="spacing" textLength="88" x="15" y="424.8018">[Token inv&#225;lido]</text><polygon fill="#107050" points="459,446.5703,449,450.5703,459,454.5703,455,450.5703" style="stroke:#107050;stroke-width:1.0;"/><line style="stroke:#107050;stroke-width:1.0;" x1="453" x2="707" y1="450.5703" y2="450.5703"/><text fill="#000000" font-family="Roboto Condensed" font-size="13" lengthAdjust="spacing" textLength="223" x="465" y="445.7139">Respuesta de error (401 Unauthorized)</text><polygon fill="#107050" points="59,476.9219,49,480.9219,59,484.9219,55,480.9219" style="stroke:#107050;stroke-width:1.0;"/><line style="stroke:#107050;stroke-width:1.0;" x1="53" x2="437" y1="480.9219" y2="480.9219"/><text fill="#000000" font-family="Roboto Condensed" font-size="13" lengthAdjust="spacing" textLength="172" x="65" y="476.0654">Notifica error de autenticaci&#243;n</text><!--SRC=[bLFBRXD14BpFLpGMXt0W6CGf1oH765WXaSY63-ZCjkqMizEhULWcVvCFo2cVi3z6pww95knOmPAbrKvLTLNNREBa23uohWCs23N1acmcRncXnO0mtxKI4WQe_4f2WvQx1wyu1mjg9NAIm59uCuz9ckuUuLeVNFUmPel6R5ZFLYBfHdR6l61lNTOtvszY-kNed7FZZ46hCZ1H2SSnuGGmGeuPLTgeYyIMM_G99aiz9lLPaDszlYy64mKlFMSvcn_73-QxEpsHlndLtDIOy0OZmMGSwJ5F70UAFMk4ksHf8slGlLzu_Q68Ni1dygJxes5__TfAJjvYedwi_WluKEi2bk8qGifrMUnt-Kc-tt1Ev4lcVyIEk46NzhnjT-Uu5WFwEmG-kbrGR3Ffxi6AVt9a4JbXUq7Qtot2LQl9XuloSiWF24vRkwxWqvTgSSBCCLdjI-K6FIijzzTKvVhEz57xasYUdv1sYeW8P- -cKxZw-ceSQz-Y3lKfq5ez1xlXRN_3v-Cg2sTS-Kn7L4qFU993Blwfa_r_5wDg589-9sVlfs_XXyUSDigufVfuWc-IU5M-a86bT3niiwPJruXy3MO4qH6_0G00]--></g></svg>