<svg xmlns="http://www.w3.org/2000/svg" xmlns:xlink="http://www.w3.org/1999/xlink" contentStyleType="text/css" data-diagram-type="SEQUENCE" height="486px" preserveAspectRatio="none" style="width:762px;height:486px;background:#FFFFFF;" version="1.1" viewBox="0 0 762 486" width="762px" zoomAndPan="magnify"><defs/><g><g><title>Usuario</title><rect fill="#FFFFFF" fill-opacity="0.00000" height="324.3281" width="8" x="30.6021" y="81.2969"/><line style="stroke:#181818;stroke-width:0.5;stroke-dasharray:5.0,5.0;" x1="34" x2="34" y1="81.2969" y2="405.625"/></g><g><title>Aplicativo</title><rect fill="#FFFFFF" fill-opacity="0.00000" height="324.3281" width="8" x="250.5352" y="81.2969"/><line style="stroke:#181818;stroke-width:0.5;stroke-dasharray:5.0,5.0;" x1="254.1606" x2="254.1606" y1="81.2969" y2="405.625"/></g><g><title>Servidor Terminol&#243;gico</title><rect fill="#FFFFFF" fill-opacity="0.00000" height="324.3281" width="8" x="673.7051" y="81.2969"/><line style="stroke:#181818;stroke-width:0.5;stroke-dasharray:5.0,5.0;" x1="677.4702" x2="677.4702" y1="81.2969" y2="405.625"/></g><g><text fill="#000000" font-family="sans-serif" font-size="14" lengthAdjust="spacing" textLength="53.2041" x="5" y="77.9951">Usuario</text><ellipse cx="34.6021" cy="13.5" fill="#E2E2F0" rx="8" ry="8" style="stroke:#181818;stroke-width:0.5;"/><path d="M34.6021,21.5 L34.6021,48.5 M21.6021,29.5 L47.6021,29.5 M34.6021,48.5 L21.6021,63.5 M34.6021,48.5 L47.6021,63.5 " fill="#FFFFFF" fill-opacity="0.00000" style="stroke:#181818;stroke-width:0.5;"/></g><g><text fill="#000000" font-family="sans-serif" font-size="14" lengthAdjust="spacing" textLength="53.2041" x="5" y="417.6201">Usuario</text><ellipse cx="34.6021" cy="429.4219" fill="#E2E2F0" rx="8" ry="8" style="stroke:#181818;stroke-width:0.5;"/><path d="M34.6021,437.4219 L34.6021,464.4219 M21.6021,445.4219 L47.6021,445.4219 M34.6021,464.4219 L21.6021,479.4219 M34.6021,464.4219 L47.6021,479.4219 " fill="#FFFFFF" fill-opacity="0.00000" style="stroke:#181818;stroke-width:0.5;"/></g><g><rect fill="#E2E2F0" height="30.2969" rx="2.5" ry="2.5" style="stroke:#181818;stroke-width:0.5;" width="82.749" x="213.1606" y="50"/><text fill="#000000" font-family="sans-serif" font-size="14" lengthAdjust="spacing" textLength="68.749" x="220.1606" y="69.9951">Aplicativo</text></g><g><rect fill="#E2E2F0" height="30.2969" rx="2.5" ry="2.5" style="stroke:#181818;stroke-width:0.5;" width="82.749" x="213.1606" y="404.625"/><text fill="#000000" font-family="sans-serif" font-size="14" lengthAdjust="spacing" textLength="68.749" x="220.1606" y="424.6201">Aplicativo</text></g><g><text fill="#000000" font-family="sans-serif" font-size="14" lengthAdjust="spacing" textLength="162.4697" x="593.4702" y="77.9951">Servidor Terminol&#243;gico</text><path d="M659.7051,29 C659.7051,19 677.7051,19 677.7051,19 C677.7051,19 695.7051,19 695.7051,29 L695.7051,55 C695.7051,65 677.7051,65 677.7051,65 C677.7051,65 659.7051,65 659.7051,55 L659.7051,29 " fill="#E2E2F0" style="stroke:#181818;stroke-width:1.5;"/><path d="M659.7051,29 C659.7051,39 677.7051,39 677.7051,39 C677.7051,39 695.7051,39 695.7051,29 " fill="#FFFFFF" fill-opacity="0.00000" style="stroke:#181818;stroke-width:1.5;"/></g><g><text fill="#000000" font-family="sans-serif" font-size="14" lengthAdjust="spacing" textLength="162.4697" x="593.4702" y="417.6201">Servidor Terminol&#243;gico</text><path d="M659.7051,430.9219 C659.7051,420.9219 677.7051,420.9219 677.7051,420.9219 C677.7051,420.9219 695.7051,420.9219 695.7051,430.9219 L695.7051,456.9219 C695.7051,466.9219 677.7051,466.9219 677.7051,466.9219 C677.7051,466.9219 659.7051,466.9219 659.7051,456.9219 L659.7051,430.9219 " fill="#E2E2F0" style="stroke:#181818;stroke-width:1.5;"/><path d="M659.7051,430.9219 C659.7051,440.9219 677.7051,440.9219 677.7051,440.9219 C677.7051,440.9219 695.7051,440.9219 695.7051,430.9219 " fill="#FFFFFF" fill-opacity="0.00000" style="stroke:#181818;stroke-width:1.5;"/></g><g><polygon fill="#181818" points="242.5352,108.4297,252.5352,112.4297,242.5352,116.4297,246.5352,112.4297" style="stroke:#181818;stroke-width:1;"/><line style="stroke:#181818;stroke-width:1;" x1="34.6021" x2="248.5352" y1="112.4297" y2="112.4297"/><text fill="#000000" font-family="sans-serif" font-size="13" lengthAdjust="spacing" textLength="105.2251" x="41.6021" y="107.3638">Escribe Termino</text></g><g><polygon fill="#181818" points="665.7051,137.5625,675.7051,141.5625,665.7051,145.5625,669.7051,141.5625" style="stroke:#181818;stroke-width:1;"/><line style="stroke:#181818;stroke-width:1;" x1="254.5352" x2="671.7051" y1="141.5625" y2="141.5625"/><text fill="#000000" font-family="sans-serif" font-size="13" lengthAdjust="spacing" textLength="130.9458" x="261.5352" y="136.4966">Obtenci&#243;n de Token</text></g><g><polygon fill="#181818" points="265.5352,166.6953,255.5352,170.6953,265.5352,174.6953,261.5352,170.6953" style="stroke:#181818;stroke-width:1;"/><line style="stroke:#181818;stroke-width:1;" x1="259.5352" x2="676.7051" y1="170.6953" y2="170.6953"/><text fill="#000000" font-family="sans-serif" font-size="13" lengthAdjust="spacing" textLength="39.6602" x="271.5352" y="165.6294">Token</text></g><g><polygon fill="#181818" points="665.7051,195.8281,675.7051,199.8281,665.7051,203.8281,669.7051,199.8281" style="stroke:#181818;stroke-width:1;"/><line style="stroke:#181818;stroke-width:1;" x1="254.5352" x2="671.7051" y1="199.8281" y2="199.8281"/><text fill="#000000" font-family="sans-serif" font-size="13" lengthAdjust="spacing" textLength="252.3193" x="261.5352" y="194.7622">Consulta mediante operaci&#243;n $expand</text></g><g><polygon fill="#181818" points="265.5352,224.9609,255.5352,228.9609,265.5352,232.9609,261.5352,228.9609" style="stroke:#181818;stroke-width:1;"/><line style="stroke:#181818;stroke-width:1;" x1="259.5352" x2="676.7051" y1="228.9609" y2="228.9609"/><text fill="#000000" font-family="sans-serif" font-size="13" lengthAdjust="spacing" textLength="223.1582" x="271.5352" y="223.895">Respuesta de C&#243;digos Snomed CT</text></g><g><polygon fill="#181818" points="45.6021,254.0938,35.6021,258.0938,45.6021,262.0938,41.6021,258.0938" style="stroke:#181818;stroke-width:1;"/><line style="stroke:#181818;stroke-width:1;" x1="39.6021" x2="253.5352" y1="258.0938" y2="258.0938"/><text fill="#000000" font-family="sans-serif" font-size="13" lengthAdjust="spacing" textLength="195.9331" x="51.6021" y="253.0278">Muestra Terminos Snomed CT</text></g><g><polygon fill="#181818" points="242.5352,283.2266,252.5352,287.2266,242.5352,291.2266,246.5352,287.2266" style="stroke:#181818;stroke-width:1;"/><line style="stroke:#181818;stroke-width:1;" x1="34.6021" x2="248.5352" y1="287.2266" y2="287.2266"/><text fill="#000000" font-family="sans-serif" font-size="13" lengthAdjust="spacing" textLength="127.8101" x="41.6021" y="282.1606">Selecciona Termino</text></g><g><polygon fill="#181818" points="665.7051,312.3594,675.7051,316.3594,665.7051,320.3594,669.7051,316.3594" style="stroke:#181818;stroke-width:1;"/><line style="stroke:#181818;stroke-width:1;" x1="254.5352" x2="671.7051" y1="316.3594" y2="316.3594"/><text fill="#000000" font-family="sans-serif" font-size="13" lengthAdjust="spacing" textLength="186.1069" x="261.5352" y="311.2935">Realiza operacion $translate</text></g><g><polygon fill="#181818" points="265.5352,341.4922,255.5352,345.4922,265.5352,349.4922,261.5352,345.4922" style="stroke:#181818;stroke-width:1;"/><line style="stroke:#181818;stroke-width:1;" x1="259.5352" x2="676.7051" y1="345.4922" y2="345.4922"/><text fill="#000000" font-family="sans-serif" font-size="13" lengthAdjust="spacing" textLength="236.501" x="271.5352" y="340.4263">Respuesta de C&#243;digo CIE-10 o CIE-O</text></g><g><line style="stroke:#181818;stroke-width:1;" x1="254.5352" x2="296.5352" y1="374.625" y2="374.625"/><line style="stroke:#181818;stroke-width:1;" x1="296.5352" x2="296.5352" y1="374.625" y2="387.625"/><line style="stroke:#181818;stroke-width:1;" x1="255.5352" x2="296.5352" y1="387.625" y2="387.625"/><polygon fill="#181818" points="265.5352,383.625,255.5352,387.625,265.5352,391.625,261.5352,387.625" style="stroke:#181818;stroke-width:1;"/><text fill="#000000" font-family="sans-serif" font-size="13" lengthAdjust="spacing" textLength="409.1699" x="261.5352" y="369.5591">Carga c&#243;digos Snomed CT m&#225;s CIE-10 o CIE-O en recurso FHIR</text></g><!--SRC=[ZP1BQiCm48RtEiKGkWsqMoyAnQGqYn2mtGECfS4CbJL6aaF8RNe67y4Ngu9ZQfosT3TevliVGXt5mtleqREe3drapHsw22-TPOsHJw8CHgmn46nAyYSsYQZ8j-p4ZaF3MZQ00SfAgPiGR9yNV0Qxe3tND5FgUtUzBAiCZdKaftaS79Xq9n_aL5cjTQRtUpeN5teR4LeodC8JI4SU9xq7EgT2vWUvWaBNKqXSyip7mN0ZgOUJ90DvjJAwTSlWS6KypcsMn2_zIxAaDOl3FxwW8BHymJcwfEJ9nGMBaVuP7lBzRllq2DDmN9aiwHnzWw3lEaCxVeQL3903JxhtGU3rRLzy0G00]--></g></svg>