<?xml version="1.0" encoding="us-ascii" standalone="no"?><svg xmlns="http://www.w3.org/2000/svg" xmlns:xlink="http://www.w3.org/1999/xlink" contentStyleType="text/css" height="482px" preserveAspectRatio="none" style="width:794px;height:482px;background:#FFFFFF;" version="1.1" viewBox="0 0 794 482" width="794px" zoomAndPan="magnify"><defs/><g><text fill="#000000" font-family="Roboto Condensed" font-size="14" font-weight="bold" lengthAdjust="spacing" textLength="689" x="53.75" y="29.5332">Diagrama de Secuencia para Recuperaci&#243;n de Informaci&#243;n del Repositorio de Anatom&#237;a Patol&#243;gica</text><rect fill="#FFFFFF" height="312" style="stroke:#107050;stroke-width:1.0;" width="10" x="310.5" y="153.5703"/><rect fill="#FFFFFF" height="266.6484" style="stroke:#107050;stroke-width:1.0;" width="10" x="582.5" y="183.9219"/><rect fill="#FFFFFF" height="259.6484" rx="4.5" ry="4.5" style="stroke:#107050;stroke-width:1.5;" width="777.5" x="10" y="198.9219"/><path d="M10,382.0313 L787.5,382.0313 L787.5,454.0703 A4.5,4.5 0 0 1 783,458.5703 L14.5,458.5703 A4.5,4.5 0 0 1 10,454.0703 L10,382.0313 " fill="#FFFFFF" style="stroke:none;stroke-width:1.0;"/><line style="stroke:#107050;stroke-width:0.5;stroke-dasharray:5.0,5.0;" x1="58" x2="58" y1="121.2188" y2="475.5703"/><line style="stroke:#107050;stroke-width:0.5;stroke-dasharray:5.0,5.0;" x1="315" x2="315" y1="121.2188" y2="475.5703"/><line style="stroke:#107050;stroke-width:0.5;stroke-dasharray:5.0,5.0;" x1="587" x2="587" y1="121.2188" y2="475.5703"/><text fill="#000000" font-family="Roboto Condensed" font-size="14" lengthAdjust="spacing" textLength="71" x="20" y="118.1426">Profesional</text><ellipse cx="58.5" cy="52.1094" fill="#FFFFFF" rx="8" ry="8" style="stroke:#107050;stroke-width:0.5;"/><path d="M58.5,60.1094 L58.5,87.1094 M45.5,68.1094 L71.5,68.1094 M58.5,87.1094 L45.5,102.1094 M58.5,87.1094 L71.5,102.1094 " fill="none" style="stroke:#107050;stroke-width:0.5;"/><rect fill="#FFFFFF" height="31.6094" rx="4.5" ry="4.5" style="stroke:#107050;stroke-width:0.5;" width="189" x="221" y="88.6094"/><text fill="#000000" font-family="Roboto Condensed" font-size="14" lengthAdjust="spacing" textLength="175" x="228" y="110.1426">Sistema Inform&#225;tico Externo</text><text fill="#000000" font-family="Roboto Condensed" font-size="14" lengthAdjust="spacing" textLength="219" x="475" y="118.1426">Repositorio Anatom&#237;as Patol&#243;gicas</text><path d="M569.5,67.6094 C569.5,57.6094 587.5,57.6094 587.5,57.6094 C587.5,57.6094 605.5,57.6094 605.5,67.6094 L605.5,93.6094 C605.5,103.6094 587.5,103.6094 587.5,103.6094 C587.5,103.6094 569.5,103.6094 569.5,93.6094 L569.5,67.6094 " fill="#FFFFFF" style="stroke:#107050;stroke-width:1.5;"/><path d="M569.5,67.6094 C569.5,77.6094 587.5,77.6094 587.5,77.6094 C587.5,77.6094 605.5,77.6094 605.5,67.6094 " fill="none" style="stroke:#107050;stroke-width:1.5;"/><rect fill="#FFFFFF" height="312" style="stroke:#107050;stroke-width:1.0;" width="10" x="310.5" y="153.5703"/><rect fill="#FFFFFF" height="266.6484" style="stroke:#107050;stroke-width:1.0;" width="10" x="582.5" y="183.9219"/><polygon fill="#107050" points="298.5,149.5703,308.5,153.5703,298.5,157.5703,302.5,153.5703" style="stroke:#107050;stroke-width:1.0;"/><line style="stroke:#107050;stroke-width:1.0;" x1="58.5" x2="304.5" y1="153.5703" y2="153.5703"/><text fill="#000000" font-family="Roboto Condensed" font-size="13" lengthAdjust="spacing" textLength="233" x="65.5" y="148.7139">Genera consulta de anatom&#237;a patol&#243;gica</text><polygon fill="#107050" points="570.5,179.9219,580.5,183.9219,570.5,187.9219,574.5,183.9219" style="stroke:#107050;stroke-width:1.0;"/><line style="stroke:#107050;stroke-width:1.0;" x1="320.5" x2="576.5" y1="183.9219" y2="183.9219"/><text fill="#000000" font-family="Roboto Condensed" font-size="13" lengthAdjust="spacing" textLength="208" x="327.5" y="179.0654">Solicitud de Token de Autenticaci&#243;n</text><path d="M14.5,198.9219 L71,198.9219 L71,207.2734 L61,217.2734 L10,217.2734 L10,203.4219 A4.5,4.5 0 0 1 14.5,198.9219 " fill="#FFFFFF" style="stroke:#107050;stroke-width:1.5;"/><rect fill="none" height="259.6484" rx="4.5" ry="4.5" style="stroke:#107050;stroke-width:1.5;" width="777.5" x="10" y="198.9219"/><text fill="#000000" font-family="Roboto Condensed" font-size="13" font-weight="bold" lengthAdjust="spacing" textLength="16" x="25" y="213.417">alt</text><text fill="#000000" font-family="Roboto Condensed" font-size="11" font-weight="bold" lengthAdjust="spacing" textLength="78" x="86" y="212.3408">[Token v&#225;lido]</text><polygon fill="#107050" points="331.5,235.625,321.5,239.625,331.5,243.625,327.5,239.625" style="stroke:#107050;stroke-width:1.0;"/><line style="stroke:#107050;stroke-width:1.0;" x1="325.5" x2="581.5" y1="239.625" y2="239.625"/><text fill="#000000" font-family="Roboto Condensed" font-size="13" lengthAdjust="spacing" textLength="227" x="337.5" y="234.7686">Respuesta con Token de Autenticaci&#243;n</text><polygon fill="#107050" points="570.5,265.9766,580.5,269.9766,570.5,273.9766,574.5,269.9766" style="stroke:#107050;stroke-width:1.0;"/><line style="stroke:#107050;stroke-width:1.0;" x1="320.5" x2="576.5" y1="269.9766" y2="269.9766"/><text fill="#000000" font-family="Roboto Condensed" font-size="13" lengthAdjust="spacing" textLength="238" x="327.5" y="265.1201">Realiza un GET a la API FHIR con Query</text><line style="stroke:#107050;stroke-width:1.0;" x1="592.5" x2="634.5" y1="300.3281" y2="300.3281"/><line style="stroke:#107050;stroke-width:1.0;" x1="634.5" x2="634.5" y1="300.3281" y2="313.3281"/><line style="stroke:#107050;stroke-width:1.0;" x1="593.5" x2="634.5" y1="313.3281" y2="313.3281"/><polygon fill="#107050" points="603.5,309.3281,593.5,313.3281,603.5,317.3281,599.5,313.3281" style="stroke:#107050;stroke-width:1.0;"/><text fill="#000000" font-family="Roboto Condensed" font-size="13" lengthAdjust="spacing" textLength="176" x="599.5" y="295.4717">Busqueda en la base de datos</text><polygon fill="#107050" points="331.5,339.6797,321.5,343.6797,331.5,347.6797,327.5,343.6797" style="stroke:#107050;stroke-width:1.0;"/><line style="stroke:#107050;stroke-width:1.0;" x1="325.5" x2="581.5" y1="343.6797" y2="343.6797"/><text fill="#000000" font-family="Roboto Condensed" font-size="13" lengthAdjust="spacing" textLength="164" x="337.5" y="338.8232">Respuesta exitosa (200 OK)</text><polygon fill="#107050" points="69.5,370.0313,59.5,374.0313,69.5,378.0313,65.5,374.0313" style="stroke:#107050;stroke-width:1.0;"/><line style="stroke:#107050;stroke-width:1.0;" x1="63.5" x2="309.5" y1="374.0313" y2="374.0313"/><text fill="#000000" font-family="Roboto Condensed" font-size="13" lengthAdjust="spacing" textLength="176" x="75.5" y="369.1748">Muestra informaci&#243;n solicitada</text><line style="stroke:#107050;stroke-width:1.0;stroke-dasharray:2.0,2.0;" x1="10" x2="787.5" y1="383.0313" y2="383.0313"/><text fill="#000000" font-family="Roboto Condensed" font-size="11" font-weight="bold" lengthAdjust="spacing" textLength="88" x="15" y="394.4502">[Token inv&#225;lido]</text><polygon fill="#107050" points="331.5,416.2188,321.5,420.2188,331.5,424.2188,327.5,420.2188" style="stroke:#107050;stroke-width:1.0;"/><line style="stroke:#107050;stroke-width:1.0;" x1="325.5" x2="581.5" y1="420.2188" y2="420.2188"/><text fill="#000000" font-family="Roboto Condensed" font-size="13" lengthAdjust="spacing" textLength="223" x="337.5" y="415.3623">Respuesta de error (401 Unauthorized)</text><polygon fill="#107050" points="69.5,446.5703,59.5,450.5703,69.5,454.5703,65.5,450.5703" style="stroke:#107050;stroke-width:1.0;"/><line style="stroke:#107050;stroke-width:1.0;" x1="63.5" x2="309.5" y1="450.5703" y2="450.5703"/><text fill="#000000" font-family="Roboto Condensed" font-size="13" lengthAdjust="spacing" textLength="172" x="75.5" y="445.7139">Notifica error de autenticaci&#243;n</text><!--SRC=[bPB1RXD138RlynGcftAWf8XJ3aYf26rK0I4f3-3kEgt5PBoTyLHftwOFmAcFi2-6PnF2IWaHhBJIpjh-v_jjAwid-CXu6t65K1CigCeKAaPeC2BCxTXGn8hRbr3Yqx2KkDgTlMKqabWbifJuEA3Agls9CBCFtxxSSeNEtR75bY9w8sldNd6eVBO_fs-JFdewvRpopc5bCZ2OHLbIOWde1u09Sifewiw0b2jkC2WC5foK37d3qpvRH62oLef1kgh5TE9gLBp1H33eK-uGKvynTLMzl7EM9h6nR- -7Dn-Aw0WkA5X7e9AGijUkQxXptVHScnz-GAMEnTwYi7_121RYpPVckaXTom_gEZtEIi5iRNhzH-m08dhTrZsqpvvhSM3FVkBEmfnIaobfv-AlLnQH8zXpGizF23d0nUGQ43p2U3Q5JvVJUQVxBLDyF89oIFGyf_jCDO8HcLutFIEpIKhwTrUqjeo4SF9kE8IlLw_xLhRZ7C7dack3vFvAfyqii4P7FlqU1uV_Rgn1KuospoVlXsVmFM3MEwjuelempHTHNbhhjrLbgVQdKTEnDQ1GW-kbbBNx1G00]--></g></svg>