<?xml version="1.0" encoding="us-ascii" standalone="no"?><svg xmlns="http://www.w3.org/2000/svg" xmlns:xlink="http://www.w3.org/1999/xlink" contentStyleType="text/css" height="543px" preserveAspectRatio="none" style="width:853px;height:543px;background:#FFFFFF;" version="1.1" viewBox="0 0 853 543" width="853px" zoomAndPan="magnify"><defs/><g><text fill="#000000" font-family="Roboto Condensed" font-size="14" font-weight="bold" lengthAdjust="spacing" textLength="556" x="149.75" y="29.5332">Diagrama de Iteracci&#243;n entre el Sistema Inform&#225;tico y el Servicio Terminol&#243;gico</text><rect fill="#FFFFFF" height="373.7031" style="stroke:#107050;stroke-width:1.0;" width="10" x="367.5" y="153.5703"/><rect fill="#FFFFFF" height="268.1641" style="stroke:#107050;stroke-width:1.0;" width="10" x="755.5" y="153.5703"/><rect fill="#FFFFFF" height="320.3516" rx="4.5" ry="4.5" style="stroke:#107050;stroke-width:1.5;" width="836.5" x="10" y="198.9219"/><path d="M10,473.0859 L846.5,473.0859 L846.5,514.7734 A4.5,4.5 0 0 1 842,519.2734 L14.5,519.2734 A4.5,4.5 0 0 1 10,514.7734 L10,473.0859 " fill="#FFFFFF" style="stroke:none;stroke-width:1.0;"/><line style="stroke:#107050;stroke-width:0.5;stroke-dasharray:5.0,5.0;" x1="58" x2="58" y1="121.2188" y2="536.2734"/><line style="stroke:#107050;stroke-width:0.5;stroke-dasharray:5.0,5.0;" x1="372" x2="372" y1="121.2188" y2="536.2734"/><line style="stroke:#107050;stroke-width:0.5;stroke-dasharray:5.0,5.0;" x1="760.5" x2="760.5" y1="121.2188" y2="536.2734"/><text fill="#000000" font-family="Roboto Condensed" font-size="14" lengthAdjust="spacing" textLength="71" x="20" y="118.1426">Profesional</text><ellipse cx="58.5" cy="52.1094" fill="#FFFFFF" rx="8" ry="8" style="stroke:#107050;stroke-width:0.5;"/><path d="M58.5,60.1094 L58.5,87.1094 M45.5,68.1094 L71.5,68.1094 M58.5,87.1094 L45.5,102.1094 M58.5,87.1094 L71.5,102.1094 " fill="none" style="stroke:#107050;stroke-width:0.5;"/><rect fill="#FFFFFF" height="31.6094" rx="4.5" ry="4.5" style="stroke:#107050;stroke-width:0.5;" width="137" x="304" y="88.6094"/><text fill="#000000" font-family="Roboto Condensed" font-size="14" lengthAdjust="spacing" textLength="123" x="311" y="110.1426">Sistema Inform&#225;tico</text><text fill="#000000" font-family="Roboto Condensed" font-size="14" lengthAdjust="spacing" textLength="146" x="684.5" y="118.1426">Servidor Terminol&#243;gico</text><path d="M742.5,67.6094 C742.5,57.6094 760.5,57.6094 760.5,57.6094 C760.5,57.6094 778.5,57.6094 778.5,67.6094 L778.5,93.6094 C778.5,103.6094 760.5,103.6094 760.5,103.6094 C760.5,103.6094 742.5,103.6094 742.5,93.6094 L742.5,67.6094 " fill="#FFFFFF" style="stroke:#107050;stroke-width:1.5;"/><path d="M742.5,67.6094 C742.5,77.6094 760.5,77.6094 760.5,77.6094 C760.5,77.6094 778.5,77.6094 778.5,67.6094 " fill="none" style="stroke:#107050;stroke-width:1.5;"/><rect fill="#FFFFFF" height="373.7031" style="stroke:#107050;stroke-width:1.0;" width="10" x="367.5" y="153.5703"/><rect fill="#FFFFFF" height="268.1641" style="stroke:#107050;stroke-width:1.0;" width="10" x="755.5" y="153.5703"/><polygon fill="#107050" points="355.5,149.5703,365.5,153.5703,355.5,157.5703,359.5,153.5703" style="stroke:#107050;stroke-width:1.0;"/><line style="stroke:#107050;stroke-width:1.0;" x1="58.5" x2="361.5" y1="153.5703" y2="153.5703"/><text fill="#000000" font-family="Roboto Condensed" font-size="13" lengthAdjust="spacing" textLength="94" x="65.5" y="148.7139">Escribe Termino</text><polygon fill="#107050" points="743.5,179.9219,753.5,183.9219,743.5,187.9219,747.5,183.9219" style="stroke:#107050;stroke-width:1.0;"/><line style="stroke:#107050;stroke-width:1.0;" x1="377.5" x2="749.5" y1="183.9219" y2="183.9219"/><text fill="#000000" font-family="Roboto Condensed" font-size="13" lengthAdjust="spacing" textLength="107" x="384.5" y="179.0654">Solicitud de Token</text><path d="M14.5,198.9219 L71,198.9219 L71,207.2734 L61,217.2734 L10,217.2734 L10,203.4219 A4.5,4.5 0 0 1 14.5,198.9219 " fill="#FFFFFF" style="stroke:#107050;stroke-width:1.5;"/><rect fill="none" height="320.3516" rx="4.5" ry="4.5" style="stroke:#107050;stroke-width:1.5;" width="836.5" x="10" y="198.9219"/><text fill="#000000" font-family="Roboto Condensed" font-size="13" font-weight="bold" lengthAdjust="spacing" textLength="16" x="25" y="213.417">alt</text><text fill="#000000" font-family="Roboto Condensed" font-size="11" font-weight="bold" lengthAdjust="spacing" textLength="122" x="86" y="212.3408">[Credenciales v&#225;lidas]</text><polygon fill="#107050" points="388.5,235.625,378.5,239.625,388.5,243.625,384.5,239.625" style="stroke:#107050;stroke-width:1.0;"/><line style="stroke:#107050;stroke-width:1.0;" x1="382.5" x2="754.5" y1="239.625" y2="239.625"/><text fill="#000000" font-family="Roboto Condensed" font-size="13" lengthAdjust="spacing" textLength="35" x="394.5" y="234.7686">Token</text><polygon fill="#107050" points="743.5,265.9766,753.5,269.9766,743.5,273.9766,747.5,269.9766" style="stroke:#107050;stroke-width:1.0;"/><line style="stroke:#107050;stroke-width:1.0;" x1="377.5" x2="749.5" y1="269.9766" y2="269.9766"/><text fill="#000000" font-family="Roboto Condensed" font-size="13" lengthAdjust="spacing" textLength="221" x="384.5" y="265.1201">Consulta mediante operaci&#243;n $expand</text><polygon fill="#107050" points="388.5,296.3281,378.5,300.3281,388.5,304.3281,384.5,300.3281" style="stroke:#107050;stroke-width:1.0;"/><line style="stroke:#107050;stroke-width:1.0;" x1="382.5" x2="754.5" y1="300.3281" y2="300.3281"/><text fill="#000000" font-family="Roboto Condensed" font-size="13" lengthAdjust="spacing" textLength="251" x="394.5" y="295.4717">Repuesta de posibles t&#233;rminos Snomed CT</text><polygon fill="#107050" points="69.5,326.6797,59.5,330.6797,69.5,334.6797,65.5,330.6797" style="stroke:#107050;stroke-width:1.0;"/><line style="stroke:#107050;stroke-width:1.0;" x1="63.5" x2="366.5" y1="330.6797" y2="330.6797"/><text fill="#000000" font-family="Roboto Condensed" font-size="13" lengthAdjust="spacing" textLength="285" x="75.5" y="325.8232">Muestra posibles t&#233;rminos Snomed CT al usuario</text><polygon fill="#107050" points="355.5,357.0313,365.5,361.0313,355.5,365.0313,359.5,361.0313" style="stroke:#107050;stroke-width:1.0;"/><line style="stroke:#107050;stroke-width:1.0;" x1="58.5" x2="361.5" y1="361.0313" y2="361.0313"/><text fill="#000000" font-family="Roboto Condensed" font-size="13" lengthAdjust="spacing" textLength="129" x="65.5" y="356.1748">Selecciona un t&#233;rmino</text><polygon fill="#107050" points="743.5,387.3828,753.5,391.3828,743.5,395.3828,747.5,391.3828" style="stroke:#107050;stroke-width:1.0;"/><line style="stroke:#107050;stroke-width:1.0;" x1="377.5" x2="749.5" y1="391.3828" y2="391.3828"/><text fill="#000000" font-family="Roboto Condensed" font-size="13" lengthAdjust="spacing" textLength="157" x="384.5" y="386.5264">Utiliza operaci&#243;n $translate</text><polygon fill="#107050" points="388.5,417.7344,378.5,421.7344,388.5,425.7344,384.5,421.7344" style="stroke:#107050;stroke-width:1.0;"/><line style="stroke:#107050;stroke-width:1.0;" x1="382.5" x2="759.5" y1="421.7344" y2="421.7344"/><text fill="#000000" font-family="Roboto Condensed" font-size="13" lengthAdjust="spacing" textLength="299" x="394.5" y="416.8779">Respuesta de traducci&#243;n en C&#243;digo CIE-10 o CIE-O</text><line style="stroke:#107050;stroke-width:1.0;" x1="377.5" x2="419.5" y1="452.0859" y2="452.0859"/><line style="stroke:#107050;stroke-width:1.0;" x1="419.5" x2="419.5" y1="452.0859" y2="465.0859"/><line style="stroke:#107050;stroke-width:1.0;" x1="378.5" x2="419.5" y1="465.0859" y2="465.0859"/><polygon fill="#107050" points="388.5,461.0859,378.5,465.0859,388.5,469.0859,384.5,465.0859" style="stroke:#107050;stroke-width:1.0;"/><text fill="#000000" font-family="Roboto Condensed" font-size="13" lengthAdjust="spacing" textLength="364" x="384.5" y="447.2295">Carga c&#243;digo Snomed-CT y CIE-10 o CIE-O en el recurso FHIR</text><line style="stroke:#107050;stroke-width:1.0;stroke-dasharray:2.0,2.0;" x1="10" x2="846.5" y1="474.0859" y2="474.0859"/><text fill="#000000" font-family="Roboto Condensed" font-size="11" font-weight="bold" lengthAdjust="spacing" textLength="125" x="15" y="485.5049">[Credenciales inv&#225;lida]</text><polygon fill="#107050" points="388.5,507.2734,378.5,511.2734,388.5,515.2734,384.5,511.2734" style="stroke:#107050;stroke-width:1.0;"/><line style="stroke:#107050;stroke-width:1.0;" x1="382.5" x2="759.5" y1="511.2734" y2="511.2734"/><text fill="#000000" font-family="Roboto Condensed" font-size="13" lengthAdjust="spacing" textLength="223" x="394.5" y="506.417">Respuesta de error (401 Unauthorized)</text><!--SRC=[VLBBRXin3BphArYZX_RWD05w2efSjWcoXw95rla0UaKxHBNYGWyZpj_asBC_ON-ir7hZn6uHdGI9CvpXC75o1DyPrm4x14jG9mhOjZpiF91FWO0SD1mJwN_jLnAwuJbnAx0TVoXik6M11OMElRXXjzPFOnvOoLOYQIcFndnWtxgiBsTVOjewEkFSEMEmJH9WzYl8YYABHpS3Z91Zni1YUWpQYNlq2MR_qp1Mrusnc729aRIgwB5AUgndB6mMnapKCBzIt2LSnpRmabwgYo3UOA92UhWhhcuAebbSGYDE9QLiox0MyfkyGPUW2cJ9juoE8co6PySMem4z2lqs7w7xwkbjegl4n-mIGaUMrIU1z2M0SVuVwL6zsnEQE-epnJIcrKlaPMcPXZ-Z0tNfHRcWMeom5x-ABNv_56J0Tt60xf30MuffP0qvqltGi23x0_x4rdrYnqzuP4Rx-kZAGFyn55yTQPNDX_s3QjXPNWjKzVNyuXpsbvyZWQMt2RtsBo8h36k4TWBlhStLslQ4gBJGBGxKvX05RcxhEqDE5-aeJ_PJeky9fn1qxJvzFR-0UuyvFKZW9xAV3Mc2Vm40]--></g></svg>