<svg xmlns="http://www.w3.org/2000/svg" xmlns:xlink="http://www.w3.org/1999/xlink" contentStyleType="text/css" data-diagram-type="SEQUENCE" height="505px" preserveAspectRatio="none" style="width:1041px;height:505px;background:#FFFFFF;" version="1.1" viewBox="0 0 1041 505" width="1041px" zoomAndPan="magnify"><title>Diagrama de Secuencia para el Informe Resultante de Anatom&#237;a Patol&#243;gica</title><defs/><g><text fill="#000000" font-family="Roboto Condensed" font-size="14" font-weight="bold" lengthAdjust="spacing" textLength="595.0752" x="224.0625" y="27.9951">Diagrama de Secuencia para el Informe Resultante de Anatom&#237;a Patol&#243;gica</text><g><title>Sistema Inform&#225;tico de Anatom&#237;a Patol&#243;gica</title><rect fill="#FFFFFF" height="331" style="stroke:#107050;stroke-width:1;" width="10" x="385.5122" y="149.7266"/></g><g><title>Repositorio Anatom&#237;as Patol&#243;gicas</title><rect fill="#FFFFFF" height="238.6016" style="stroke:#107050;stroke-width:1;" width="10" x="728.6938" y="220.9922"/></g><rect fill="#FFFFFF" height="174.4688" rx="4.5" ry="4.5" style="stroke:#107050;stroke-width:1.5;" width="816.4756" x="217.7246" y="278.125"/><path d="M217.7246,408.6563 L1034.2002,408.6563 L1034.2002,448.0938 A4.5,4.5 0 0 1 1029.7002,452.5938 L222.2246,452.5938 A4.5,4.5 0 0 1 217.7246,448.0938 L217.7246,408.6563" fill="#FFFFFF" style="stroke:none;stroke-width:1;"/><g><title>Anatopatologo</title><rect fill="#000000" fill-opacity="0.00000" height="380.1328" width="8" x="55.2559" y="118.5938"/><line style="stroke:#107050;stroke-width:0.5;stroke-dasharray:5.0,5.0;" x1="59" x2="59" y1="118.5938" y2="498.7266"/></g><g><title>Sistema Inform&#225;tico de Anatom&#237;a Patol&#243;gica</title><rect fill="#000000" fill-opacity="0.00000" height="380.1328" width="8" x="386.5122" y="118.5938"/><line style="stroke:#107050;stroke-width:0.5;stroke-dasharray:5.0,5.0;" x1="389.7246" x2="389.7246" y1="118.5938" y2="498.7266"/></g><g><title>Repositorio Anatom&#237;as Patol&#243;gicas</title><rect fill="#000000" fill-opacity="0.00000" height="380.1328" width="8" x="729.6938" y="118.5938"/><line style="stroke:#107050;stroke-width:0.5;stroke-dasharray:5.0,5.0;" x1="733.4414" x2="733.4414" y1="118.5938" y2="498.7266"/></g><g class="participant participant-head" data-participant="usuario"><text fill="#000000" font-family="Roboto Condensed" font-size="14" lengthAdjust="spacing" textLength="102.5117" x="5" y="115.292">Anatopatologo</text><ellipse cx="59.2559" cy="50.7969" fill="#FFFFFF" rx="8" ry="8" style="stroke:#107050;stroke-width:0.5;"/><path d="M59.2559,58.7969 L59.2559,85.7969 M46.2559,66.7969 L72.2559,66.7969 M59.2559,85.7969 L46.2559,100.7969 M59.2559,85.7969 L72.2559,100.7969" fill="none" style="stroke:#107050;stroke-width:0.5;"/></g><g class="participant participant-head" data-participant="PAIS"><rect fill="#FFFFFF" height="30.2969" rx="4.5" ry="4.5" style="stroke:#107050;stroke-width:0.5;" width="325.5752" x="227.7246" y="87.2969"/><text fill="#000000" font-family="Roboto Condensed" font-size="14" lengthAdjust="spacing" textLength="311.5752" x="234.7246" y="107.292">Sistema Inform&#225;tico de Anatom&#237;a Patol&#243;gica</text></g><g class="participant participant-head" data-participant="RepositorioBiopsia"><text fill="#000000" font-family="Roboto Condensed" font-size="14" lengthAdjust="spacing" textLength="242.5049" x="609.4414" y="115.292">Repositorio Anatom&#237;as Patol&#243;gicas</text><path d="M715.6938,66.2969 C715.6938,56.2969 733.6938,56.2969 733.6938,56.2969 C733.6938,56.2969 751.6938,56.2969 751.6938,66.2969 L751.6938,92.2969 C751.6938,102.2969 733.6938,102.2969 733.6938,102.2969 C733.6938,102.2969 715.6938,102.2969 715.6938,92.2969 L715.6938,66.2969" fill="#FFFFFF" style="stroke:#107050;stroke-width:1.5;"/><path d="M715.6938,66.2969 C715.6938,76.2969 733.6938,76.2969 733.6938,76.2969 C733.6938,76.2969 751.6938,76.2969 751.6938,66.2969" fill="none" style="stroke:#107050;stroke-width:1.5;"/></g><g><title>Sistema Inform&#225;tico de Anatom&#237;a Patol&#243;gica</title><rect fill="#FFFFFF" height="331" style="stroke:#107050;stroke-width:1;" width="10" x="385.5122" y="149.7266"/></g><g><title>Repositorio Anatom&#237;as Patol&#243;gicas</title><rect fill="#FFFFFF" height="238.6016" style="stroke:#107050;stroke-width:1;" width="10" x="728.6938" y="220.9922"/></g><g class="message" data-participant-1="usuario" data-participant-2="PAIS"><polygon fill="#107050" points="373.5122,145.7266,383.5122,149.7266,373.5122,153.7266,377.5122,149.7266" style="stroke:#107050;stroke-width:1;"/><line style="stroke:#107050;stroke-width:1;" x1="59.2559" x2="379.5122" y1="149.7266" y2="149.7266"/><text fill="#000000" font-family="Roboto Condensed" font-size="13" lengthAdjust="spacing" textLength="260.0635" x="66.2559" y="144.6606">Genera informe de anatom&#237;a patol&#243;gica</text></g><g class="message" data-participant-1="PAIS" data-participant-2="PAIS"><line style="stroke:#107050;stroke-width:1;" x1="395.5122" x2="437.5122" y1="178.8594" y2="178.8594"/><line style="stroke:#107050;stroke-width:1;" x1="437.5122" x2="437.5122" y1="178.8594" y2="191.8594"/><line style="stroke:#107050;stroke-width:1;" x1="396.5122" x2="437.5122" y1="191.8594" y2="191.8594"/><polygon fill="#107050" points="406.5122,187.8594,396.5122,191.8594,406.5122,195.8594,402.5122,191.8594" style="stroke:#107050;stroke-width:1;"/><text fill="#000000" font-family="Roboto Condensed" font-size="13" lengthAdjust="spacing" textLength="309.1816" x="402.5122" y="173.7935">Genera informe en estructura FHIR (xml o json)</text></g><g class="message" data-participant-1="PAIS" data-participant-2="RepositorioBiopsia"><polygon fill="#107050" points="716.6938,216.9922,726.6938,220.9922,716.6938,224.9922,720.6938,220.9922" style="stroke:#107050;stroke-width:1;"/><line style="stroke:#107050;stroke-width:1;" x1="395.5122" x2="722.6938" y1="220.9922" y2="220.9922"/><text fill="#000000" font-family="Roboto Condensed" font-size="13" lengthAdjust="spacing" textLength="192.7783" x="402.5122" y="215.9263">Realiza un POST a la API FHIR</text></g><g class="message" data-participant-1="RepositorioBiopsia" data-participant-2="RepositorioBiopsia"><line style="stroke:#107050;stroke-width:1;" x1="738.6938" x2="780.6938" y1="250.125" y2="250.125"/><line style="stroke:#107050;stroke-width:1;" x1="780.6938" x2="780.6938" y1="250.125" y2="263.125"/><line style="stroke:#107050;stroke-width:1;" x1="739.6938" x2="780.6938" y1="263.125" y2="263.125"/><polygon fill="#107050" points="749.6938,259.125,739.6938,263.125,749.6938,267.125,745.6938,263.125" style="stroke:#107050;stroke-width:1;"/><text fill="#000000" font-family="Roboto Condensed" font-size="13" lengthAdjust="spacing" textLength="154.2354" x="745.6938" y="245.0591">Valida formato del FHIR</text></g><path d="M222.2246,278.125 L282.1675,278.125 L282.1675,285.2578 L272.1675,295.2578 L217.7246,295.2578 L217.7246,282.625 A4.5,4.5 0 0 1 222.2246,278.125" fill="#FFFFFF" style="stroke:#107050;stroke-width:1.5;"/><rect fill="none" height="174.4688" rx="4.5" ry="4.5" style="stroke:#107050;stroke-width:1.5;" width="816.4756" x="217.7246" y="278.125"/><text fill="#000000" font-family="Roboto Condensed" font-size="13" font-weight="bold" lengthAdjust="spacing" textLength="19.4429" x="232.7246" y="291.1919">alt</text><text fill="#000000" font-family="Roboto Condensed" font-size="11" font-weight="bold" lengthAdjust="spacing" textLength="103.646" x="297.1675" y="290.3354">[Formato v&#225;lido]</text><g class="message" data-participant-1="RepositorioBiopsia" data-participant-2="RepositorioBiopsia"><line style="stroke:#107050;stroke-width:1;" x1="738.6938" x2="780.6938" y1="316.3906" y2="316.3906"/><line style="stroke:#107050;stroke-width:1;" x1="780.6938" x2="780.6938" y1="316.3906" y2="329.3906"/><line style="stroke:#107050;stroke-width:1;" x1="739.6938" x2="780.6938" y1="329.3906" y2="329.3906"/><polygon fill="#107050" points="749.6938,325.3906,739.6938,329.3906,749.6938,333.3906,745.6938,329.3906" style="stroke:#107050;stroke-width:1;"/><text fill="#000000" font-family="Roboto Condensed" font-size="13" lengthAdjust="spacing" textLength="192.6895" x="745.6938" y="311.3247">Actualiza solicitud de informe</text></g><g class="message" data-participant-1="RepositorioBiopsia" data-participant-2="RepositorioBiopsia"><line style="stroke:#107050;stroke-width:1;" x1="738.6938" x2="780.6938" y1="358.5234" y2="358.5234"/><line style="stroke:#107050;stroke-width:1;" x1="780.6938" x2="780.6938" y1="358.5234" y2="371.5234"/><line style="stroke:#107050;stroke-width:1;" x1="739.6938" x2="780.6938" y1="371.5234" y2="371.5234"/><polygon fill="#107050" points="749.6938,367.5234,739.6938,371.5234,749.6938,375.5234,745.6938,371.5234" style="stroke:#107050;stroke-width:1;"/><text fill="#000000" font-family="Roboto Condensed" font-size="13" lengthAdjust="spacing" textLength="266.5063" x="745.6938" y="353.4575">Almacena el informe en la base de datos</text></g><g class="message" data-participant-1="RepositorioBiopsia" data-participant-2="PAIS"><polygon fill="#107050" points="406.5122,396.6563,396.5122,400.6563,406.5122,404.6563,402.5122,400.6563" style="stroke:#107050;stroke-width:1;"/><line style="stroke:#107050;stroke-width:1;" x1="400.5122" x2="727.6938" y1="400.6563" y2="400.6563"/><text fill="#000000" font-family="Roboto Condensed" font-size="13" lengthAdjust="spacing" textLength="214.3096" x="412.5122" y="395.5903">Respuesta exitosa (201 Created)</text></g><line style="stroke:#107050;stroke-width:1;stroke-dasharray:2.0,2.0;" x1="217.7246" x2="1034.2002" y1="409.6563" y2="409.6563"/><text fill="#000000" font-family="Roboto Condensed" font-size="11" font-weight="bold" lengthAdjust="spacing" textLength="115.2476" x="222.7246" y="419.8667">[Formato inv&#225;lido]</text><g class="message" data-participant-1="RepositorioBiopsia" data-participant-2="PAIS"><polygon fill="#107050" points="406.5122,440.5938,396.5122,444.5938,406.5122,448.5938,402.5122,444.5938" style="stroke:#107050;stroke-width:1;"/><line style="stroke:#107050;stroke-width:1;" x1="400.5122" x2="727.6938" y1="444.5938" y2="444.5938"/><text fill="#000000" font-family="Roboto Condensed" font-size="13" lengthAdjust="spacing" textLength="250.5103" x="412.5122" y="439.5278">Respuesta de error (400 Bad Request)</text></g><g class="message" data-participant-1="PAIS" data-participant-2="usuario"><polygon fill="#107050" points="70.2559,476.7266,60.2559,480.7266,70.2559,484.7266,66.2559,480.7266" style="stroke:#107050;stroke-width:1;"/><line style="stroke:#107050;stroke-width:1;" x1="64.2559" x2="389.5122" y1="480.7266" y2="480.7266"/><text fill="#000000" font-family="Roboto Condensed" font-size="13" lengthAdjust="spacing" textLength="302.2563" x="76.2559" y="475.6606">Notifica el estado del informe en el repositorio</text></g><!--SRC=[fPXTRXit483VTOgfy-04g0qbQ93KG0l8-h65sfAhLGhqAQ1sHn8JBhabkRRLeeV90VhK8_XY7Ivt9SMso0rg88P3VXpES8Opd3s66uq6xHbSAwdIjLOvThxBSCabGZB__MhuSJ0SzJvSpJ_s-ltXP0ulkjtk0UByeWylHgFHWUcHctQhEyUxNPb5pPc0AxvQMpWN9SBBDztkgqSohiONbpiLthyUzWRTPv43ElZ9rXgyVwh1e3VxPNS6RzwzU_lsEUBG6RYv_xFzzNWm-UeCNdVVTTzs3r7dpLO7vaUDcXtpcSk2QPR3NnsWdsEOhxc19KUHWS2b1IujIikLP49iO26O_7pQ-TiPqLyhPH3i6i7OZK3Og1BkcBIms00h2h7XSkMcSrYZnjFE8tLgMvwry17g37eIRO-OqHE6HfoUis5_Udqzd0o60m_GsCbF9p2OmcGwX-5WF8VvvJY1PDYVZwUJKpTBJ888_T9ObKDIsMSmTGS12nJg3gm2TOjQymo1MynDO-N-cTQ7UY7KWhmyBTnwumS7DsEWMFV_ITOiKtVkl9PC6Am6jIfbbYejKSEFrSX4MHmfQISiHvYfXI8T-afcA0rcNn5UuR5bWgTUYG4kMIbiU7aDkMnW2fPYjiN7CYNDbM2MFHRNLqBfdHCQcoiL39p0kT8PQkF7Urghk_qLjR-hEJhUMsutVa446d2Ma-unLkamiQBW3XFQyYLBmz2vSnNJOStxWXaJ8LGPjeY6XO_2Y2IL5qh6R2FdMwr4a1cGnnVCO10QKeQ8-6t4HLZ6I0cQ32DqgS92nfIjDBahJ5qXkJryq1ELOGImOM2w-8IHiBbXwMUsmWX30PZoWaaRvrnW1AbVIop3-yr8QIPN4MSb-4U9qXtpVIjkG7Ssvjs6lQ34LxGYh_YI_ibsgivmIVbPHa8ZiUIJ665ZCfIEkJMvupdLqZ3qWIfEwEezoRIa-weg6qssRJBgTc9VYgkXpwNK64mvDOnKIJMCD5arI4LccwGRf7pMZIENo5o0Ha2NdyF8NeAEW4s6Zc0-HGUXROuEKdMI3Z9LbWuJFas7cIfF1v4nFIUQz1S7DRzrbwu5I5avjPYrGCi5lOqYtBQQ1B6wd0IPgfv4Y9Y5TKK9CgtETB-cnC6gg0GnNrM2oAwi1B7zkj8AR0fBAzXNbcz0LRPfXsyhKIjwLug-3M-Jetm1Yo6nK4iey57PJO6zjc2_BJXi2uxRWfCOwEjn49fp6mlEfXmVX9g2xBfBwZTXEdhQV5RDPSrDgJcczMWjTNvcsu2ZSRsc7mIcgRsKgIWppEYFgjscXyEg98l059YQxs5HsdenjyS6fBAWCLLvJcc9Lb6Rjy2g8-UOdVhDAzpR77g1-4wLinLbzDWpfFyXcK-lwnRR3_M4g7jZtpEdp7NFODWInGQyXfIjGPNsTF_xmnsdXTlksfciVEiCWXktW2rejbwo-tO5LfTOgnDEf-uBXdNMGsqS0zeemTHTECx0zU-0WYh0KcdNBQEXRfVo9Jgk9vbL-SC_Z1AaLUBXtnLFMQUpTiekbR8BTK-nmDnB2Ougk72SMgaZO0PAKpBDLQVOfM4uIfnXf8RVyU4BpQY3UrLYRdhZf9FLfH-EPbWemsbBhdQBpFugKotRuywvAWmdpMkDuEJdIkePNA14EW5UcqzwiAqUnPxDp3qTAPjuPTolWp9G0XfoK6fB6XrTZcVmyZudDyCde-IhxUAd-ftH61FyJmQbX9jfCWT6Lm1wD-DAp4w9PqnxEdHeZzzeYuo1KvOC99D5BLrOUlJumTk7BmIfkgArbKnFvjBhRnIzERWjCtUYzS5ygp2HquD4Lj6vTxHq7bKOa5mA2MKW8DQxXqAwACaZ9EcU4CFSfzVNqDT8Hvczwg0WSOtXNCPDVooMLA4BJ5VWvG_TBhtbCvhxmqsHR9brCWpvhOc6EZBFtFE8BodadDrEVEPTj1zTWhBULj2-V2ViFm00]--></g></svg>