<svg xmlns="http://www.w3.org/2000/svg" xmlns:xlink="http://www.w3.org/1999/xlink" contentStyleType="text/css" data-diagram-type="SEQUENCE" height="463px" preserveAspectRatio="none" style="width:1055px;height:463px;background:#FFFFFF;" version="1.1" viewBox="0 0 1055 463" width="1055px" zoomAndPan="magnify"><title>Diagrama de Secuencia para la Solicitud de Informe de Anatom&#237;a Patol&#243;gica</title><defs/><g><text fill="#000000" font-family="Roboto Condensed" font-size="14" font-weight="bold" lengthAdjust="spacing" textLength="602.8271" x="227.2361" y="27.9951">Diagrama de Secuencia para la Solicitud de Informe de Anatom&#237;a Patol&#243;gica</text><g><title>Sistema Inform&#225;tico Externo</title><rect fill="#FFFFFF" height="288.8672" style="stroke:#107050;stroke-width:1;" width="10" x="391.791" y="149.7266"/></g><g><title>Repositorio Anatom&#237;as Patol&#243;gicas</title><rect fill="#FFFFFF" height="196.4688" style="stroke:#107050;stroke-width:1;" width="10" x="738.8828" y="220.9922"/></g><rect fill="#FFFFFF" height="132.3359" rx="4.5" ry="4.5" style="stroke:#107050;stroke-width:1.5;" width="768.4224" x="279.877" y="278.125"/><path d="M279.877,366.5234 L1048.2993,366.5234 L1048.2993,405.9609 A4.5,4.5 0 0 1 1043.7993,410.4609 L284.377,410.4609 A4.5,4.5 0 0 1 279.877,405.9609 L279.877,366.5234" fill="#FFFFFF" style="stroke:none;stroke-width:1;"/><g><title>usuario</title><rect fill="#000000" fill-opacity="0.00000" height="338" width="8" x="29.915" y="118.5938"/><line style="stroke:#107050;stroke-width:0.5;stroke-dasharray:5.0,5.0;" x1="33" x2="33" y1="118.5938" y2="456.5938"/></g><g><title>Sistema Inform&#225;tico Externo</title><rect fill="#000000" fill-opacity="0.00000" height="338" width="8" x="392.791" y="118.5938"/><line style="stroke:#107050;stroke-width:0.5;stroke-dasharray:5.0,5.0;" x1="395.877" x2="395.877" y1="118.5938" y2="456.5938"/></g><g><title>Repositorio Anatom&#237;as Patol&#243;gicas</title><rect fill="#000000" fill-opacity="0.00000" height="338" width="8" x="739.8828" y="118.5938"/><line style="stroke:#107050;stroke-width:0.5;stroke-dasharray:5.0,5.0;" x1="743.6304" x2="743.6304" y1="118.5938" y2="456.5938"/></g><g class="participant participant-head" data-participant="usuario"><text fill="#000000" font-family="Roboto Condensed" font-size="14" lengthAdjust="spacing" textLength="51.8301" x="5" y="115.292">usuario</text><ellipse cx="33.915" cy="50.7969" fill="#FFFFFF" rx="8" ry="8" style="stroke:#107050;stroke-width:0.5;"/><path d="M33.915,58.7969 L33.915,85.7969 M20.915,66.7969 L46.915,66.7969 M33.915,85.7969 L20.915,100.7969 M33.915,85.7969 L46.915,100.7969" fill="none" style="stroke:#107050;stroke-width:0.5;"/></g><g class="participant participant-head" data-participant="Aplicativo"><rect fill="#FFFFFF" height="30.2969" rx="4.5" ry="4.5" style="stroke:#107050;stroke-width:0.5;" width="213.8281" x="289.877" y="87.2969"/><text fill="#000000" font-family="Roboto Condensed" font-size="14" lengthAdjust="spacing" textLength="199.8281" x="296.877" y="107.292">Sistema Inform&#225;tico Externo</text></g><g class="participant participant-head" data-participant="RepositorioBiopsia"><text fill="#000000" font-family="Roboto Condensed" font-size="14" lengthAdjust="spacing" textLength="242.5049" x="619.6304" y="115.292">Repositorio Anatom&#237;as Patol&#243;gicas</text><path d="M725.8828,66.2969 C725.8828,56.2969 743.8828,56.2969 743.8828,56.2969 C743.8828,56.2969 761.8828,56.2969 761.8828,66.2969 L761.8828,92.2969 C761.8828,102.2969 743.8828,102.2969 743.8828,102.2969 C743.8828,102.2969 725.8828,102.2969 725.8828,92.2969 L725.8828,66.2969" fill="#FFFFFF" style="stroke:#107050;stroke-width:1.5;"/><path d="M725.8828,66.2969 C725.8828,76.2969 743.8828,76.2969 743.8828,76.2969 C743.8828,76.2969 761.8828,76.2969 761.8828,66.2969" fill="none" style="stroke:#107050;stroke-width:1.5;"/></g><g><title>Sistema Inform&#225;tico Externo</title><rect fill="#FFFFFF" height="288.8672" style="stroke:#107050;stroke-width:1;" width="10" x="391.791" y="149.7266"/></g><g><title>Repositorio Anatom&#237;as Patol&#243;gicas</title><rect fill="#FFFFFF" height="196.4688" style="stroke:#107050;stroke-width:1;" width="10" x="738.8828" y="220.9922"/></g><g class="message" data-participant-1="usuario" data-participant-2="Aplicativo"><polygon fill="#107050" points="379.791,145.7266,389.791,149.7266,379.791,153.7266,383.791,149.7266" style="stroke:#107050;stroke-width:1;"/><line style="stroke:#107050;stroke-width:1;" x1="33.915" x2="385.791" y1="149.7266" y2="149.7266"/><text fill="#000000" font-family="Roboto Condensed" font-size="13" lengthAdjust="spacing" textLength="338.876" x="40.915" y="144.6606">Genera solicitud de informe de anatom&#237;a patol&#243;gica</text></g><g class="message" data-participant-1="Aplicativo" data-participant-2="Aplicativo"><line style="stroke:#107050;stroke-width:1;" x1="401.791" x2="443.791" y1="178.8594" y2="178.8594"/><line style="stroke:#107050;stroke-width:1;" x1="443.791" x2="443.791" y1="178.8594" y2="191.8594"/><line style="stroke:#107050;stroke-width:1;" x1="402.791" x2="443.791" y1="191.8594" y2="191.8594"/><polygon fill="#107050" points="412.791,187.8594,402.791,191.8594,412.791,195.8594,408.791,191.8594" style="stroke:#107050;stroke-width:1;"/><text fill="#000000" font-family="Roboto Condensed" font-size="13" lengthAdjust="spacing" textLength="313.0918" x="408.791" y="173.7935">Genera solicitud en estructura FHIR (xml o json)</text></g><g class="message" data-participant-1="Aplicativo" data-participant-2="RepositorioBiopsia"><polygon fill="#107050" points="726.8828,216.9922,736.8828,220.9922,726.8828,224.9922,730.8828,220.9922" style="stroke:#107050;stroke-width:1;"/><line style="stroke:#107050;stroke-width:1;" x1="401.791" x2="732.8828" y1="220.9922" y2="220.9922"/><text fill="#000000" font-family="Roboto Condensed" font-size="13" lengthAdjust="spacing" textLength="192.7783" x="408.791" y="215.9263">Realiza un POST a la API FHIR</text></g><g class="message" data-participant-1="RepositorioBiopsia" data-participant-2="RepositorioBiopsia"><line style="stroke:#107050;stroke-width:1;" x1="748.8828" x2="790.8828" y1="250.125" y2="250.125"/><line style="stroke:#107050;stroke-width:1;" x1="790.8828" x2="790.8828" y1="250.125" y2="263.125"/><line style="stroke:#107050;stroke-width:1;" x1="749.8828" x2="790.8828" y1="263.125" y2="263.125"/><polygon fill="#107050" points="759.8828,259.125,749.8828,263.125,759.8828,267.125,755.8828,263.125" style="stroke:#107050;stroke-width:1;"/><text fill="#000000" font-family="Roboto Condensed" font-size="13" lengthAdjust="spacing" textLength="154.2354" x="755.8828" y="245.0591">Valida formato del FHIR</text></g><path d="M284.377,278.125 L344.3198,278.125 L344.3198,285.2578 L334.3198,295.2578 L279.877,295.2578 L279.877,282.625 A4.5,4.5 0 0 1 284.377,278.125" fill="#FFFFFF" style="stroke:#107050;stroke-width:1.5;"/><rect fill="none" height="132.3359" rx="4.5" ry="4.5" style="stroke:#107050;stroke-width:1.5;" width="768.4224" x="279.877" y="278.125"/><text fill="#000000" font-family="Roboto Condensed" font-size="13" font-weight="bold" lengthAdjust="spacing" textLength="19.4429" x="294.877" y="291.1919">alt</text><text fill="#000000" font-family="Roboto Condensed" font-size="11" font-weight="bold" lengthAdjust="spacing" textLength="103.646" x="359.3198" y="290.3354">[Formato v&#225;lido]</text><g class="message" data-participant-1="RepositorioBiopsia" data-participant-2="RepositorioBiopsia"><line style="stroke:#107050;stroke-width:1;" x1="748.8828" x2="790.8828" y1="316.3906" y2="316.3906"/><line style="stroke:#107050;stroke-width:1;" x1="790.8828" x2="790.8828" y1="316.3906" y2="329.3906"/><line style="stroke:#107050;stroke-width:1;" x1="749.8828" x2="790.8828" y1="329.3906" y2="329.3906"/><polygon fill="#107050" points="759.8828,325.3906,749.8828,329.3906,759.8828,333.3906,755.8828,329.3906" style="stroke:#107050;stroke-width:1;"/><text fill="#000000" font-family="Roboto Condensed" font-size="13" lengthAdjust="spacing" textLength="270.4165" x="755.8828" y="311.3247">Almacena el solicitud en la base de datos</text></g><g class="message" data-participant-1="RepositorioBiopsia" data-participant-2="Aplicativo"><polygon fill="#107050" points="412.791,354.5234,402.791,358.5234,412.791,362.5234,408.791,358.5234" style="stroke:#107050;stroke-width:1;"/><line style="stroke:#107050;stroke-width:1;" x1="406.791" x2="737.8828" y1="358.5234" y2="358.5234"/><text fill="#000000" font-family="Roboto Condensed" font-size="13" lengthAdjust="spacing" textLength="214.3096" x="418.791" y="353.4575">Respuesta exitosa (201 Created)</text></g><line style="stroke:#107050;stroke-width:1;stroke-dasharray:2.0,2.0;" x1="279.877" x2="1048.2993" y1="367.5234" y2="367.5234"/><text fill="#000000" font-family="Roboto Condensed" font-size="11" font-weight="bold" lengthAdjust="spacing" textLength="115.2476" x="284.877" y="377.7339">[Formato inv&#225;lido]</text><g class="message" data-participant-1="RepositorioBiopsia" data-participant-2="Aplicativo"><polygon fill="#107050" points="412.791,398.4609,402.791,402.4609,412.791,406.4609,408.791,402.4609" style="stroke:#107050;stroke-width:1;"/><line style="stroke:#107050;stroke-width:1;" x1="406.791" x2="737.8828" y1="402.4609" y2="402.4609"/><text fill="#000000" font-family="Roboto Condensed" font-size="13" lengthAdjust="spacing" textLength="250.5103" x="418.791" y="397.395">Respuesta de error (400 Bad Request)</text></g><g class="message" data-participant-1="Aplicativo" data-participant-2="usuario"><polygon fill="#107050" points="44.915,434.5938,34.915,438.5938,44.915,442.5938,40.915,438.5938" style="stroke:#107050;stroke-width:1;"/><line style="stroke:#107050;stroke-width:1;" x1="38.915" x2="395.791" y1="438.5938" y2="438.5938"/><text fill="#000000" font-family="Roboto Condensed" font-size="13" lengthAdjust="spacing" textLength="208.127" x="50.915" y="433.5278">Notifica el estado de la solicitud</text></g><!--SRC=[fPZRRXit443VzHNJvC49K1jAq22fWHQGTR4NjILNgnJeKq3jZYGcN79BScshHJyc7z2dVe9_hCEzIEkBo0qQ883CEHpEXPhXw0YkDHgqft2bf4esMcNO-ox55PS8yUBto_6dqNWo-7Yv-3GO3iVJ1Rpiz_i7YBFp8RoSJ2O7n1CdThjxH_jJcKNDcO1BljvOE1C5mgkt_VxhHpeke_EBlGaVtem7e_wpo04RAc5d2puyjM0qcF-oZy7Rz-_VlNkEE1G39_i_nrz5e-c36Bpfl- -_wn-YpfgZ3iWdZPazyuNBd6cMmLyze7z7iDXm0okE8WM1AmjSMfIMAyc4sC9ICFdbfFUtSsAuKSeWs0s2iLk1i5K5t39fORa5bkTYo-NQYJFOeCQJtYDpQb-UzV0HwXnwSjiUCPCd3AquE-VZuUpgQZmTZKSLG6l7Fnt3Q0RJsGB6esW1YuieXdWyN4IpwOcJ4XCZmh0mLcKGb_uPJ5mWO8b2tO9Le6vGQvuYS8kPQRninxGEwhbGIyhoB7VxJRKukew0xdhrHxnXgRfryLenOR1SrAgGQQAqH0q_bYjJPN6Yf9so366kbefi62gPeZIOFY0gWoFB14yg8qQuOeMm_kqrvAg1oLc2wGwFP4AMAy4iUwnkg8JI-oGqFfSc63Y6CwLJrAPQ7sYjRjixwdoNCWhl3RVRQaC06d6MaUqXLca_iQRBxIUqvIkM-A4pbogc_POF1JCcGAZ2xn4jY-eM1ZIfB5Sov1ibtseblCo8Chva1htGc2f486yJBlmw9agGq8_Gbygl9A9gfIbTVkeIAUt-G4zLYW70-e7PyZC6hiqrIxwmDGOOke09pvcqOSvT32_rQu65_xmv6StaEf2i6FyeKBemttNYHlIT3MMtOS-fyEMTo4k-el-ocwbpN55zbe6h4LlAIOYm8HrAXz8Qt_ACUgaV-aWTn_VLUr9foVPrsJQQQjjKr9sWhSNrqETAQWYcckf7ogBgHvggwgK2qgReUgcgweQH2sJkWWP0Lv_zIAj01y2cGWUmgaHxeLsDzb9raVOoPPNs4rMPzZDbdVOY4Jqdcl8N1ZM_SL-w3Y1LvSHYsW4jblGs2d2xRkB5wdRYPSf-4Y127jOTnSjqYccxfuJ1igbuiQghU95zM_5YxRxI2MmQIoUuwYpVWAfqsmtVTQ9EzBuLVHlUfKPL3Io4XAvQJ1SVbTtcEEWA3hk2uwvWr1MSXi2g7tkX1RUXozcquuDGqv3TT4dp9imcJuVFShYikHaDnxGVhQN9p-m6S3HkrgmMWMaQBsKYYXHJ-b2Es_HmM1Va4PWS4_CzB0jRR-Rso81K5ZGcAikeBD4k6lEMM4xa7DEJwl0IhtpslK2gIPMpDLNqq3Da-35UpAxg4RjQ6WXHpyRLp9mmDps3OIiKMwWif6eDgh0dxTyVRZbjt4tNpcLLZSuWk74Rs9AazPRzRrTWTO6rEVvowdx1iCvxg9rZG0V5cBWl76VWvdSACyIAcWItHUh4aLmfJQVGnu5aLcNt_p0gaLQ9-t_NF66ztiQPkrBABjKTtGRctafGc89fhdhvlkh2YzZvGQTMEk-_aaJ1-8wkj5GlW1aOKBOIHWyprKlhzWulvfWhmqafLtiJJDi6KsvkSMTSvOQJRRKPSFnpI_SfdAD4yjMq7ULxHzdEqRpbA7ClHYeYRIlt7uD7e0GqbAl45hG-kOZcyEekeup3PwFawqUgdZfpIcjCy3yP51AkP_42ocGDhgDIsTwyP-BmTEdG6R_H4Ia35mfodO8XQkt2qYkeMhov_qgGgbjSLyq3aT6ZGZ8WbG-YGawKYQR0KzALyUXj1tYE9YyeegJmZa33tA-eRs2eaOAGlkwX89sDoLo6ZNvUELb5tqYwqQz-wFVfSPwIx0ydeXDasalH5_U7EQqluwbxzV0L2Lmet26f2xIBmoukRRrx9Vy1]--></g></svg>